<svg width="199" height="192" viewBox="0 0 199 192" fill="none" xmlns="http://www.w3.org/2000/svg">
<path d="M128.665 95.7587C128.665 77.6147 113.903 62.852 95.7587 62.852C77.6147 62.852 62.852 77.6147 62.852 95.7587C62.852 113.903 77.6147 128.665 95.7587 128.665C113.903 128.665 128.665 113.903 128.665 95.7587ZM30 95.7587C30 59.5 59.5 30 95.7587 30C132.017 30 161.517 59.5 161.517 95.7587C161.517 132.017 132.017 161.517 95.7587 161.517C59.5 161.517 30 132.017 30 95.7587Z" fill="#3C0080"/>
<path d="M89.978 113.773L169.412 113.773L169.412 77.7437L89.978 77.7437L89.978 113.773Z" fill="#547D74" stroke="white" stroke-width="2.5"/>
</svg>
