<svg width="139" height="132" viewBox="0 0 139 132" fill="none" xmlns="http://www.w3.org/2000/svg">
<path d="M98.6653 65.7587C98.6653 47.6147 83.9027 32.852 65.7587 32.852C47.6147 32.852 32.852 47.6147 32.852 65.7587C32.852 83.9027 47.6147 98.6653 65.7587 98.6653C83.9027 98.6653 98.6653 83.9027 98.6653 65.7587ZM-2.8744e-06 65.7587C-1.28949e-06 29.5 29.5 1.28949e-06 65.7587 2.8744e-06C102.017 4.45932e-06 131.517 29.5 131.517 65.7587C131.517 102.017 102.017 131.517 65.7587 131.517C29.5 131.517 -4.45932e-06 102.017 -2.8744e-06 65.7587Z" fill="white"/>
<path d="M61.228 82.523L61.228 48.9937L138.161 48.9937L138.161 82.523L61.228 82.523Z" fill="white"/>
</svg>
