<svg width="667" height="385" viewBox="0 0 667 385" fill="none" xmlns="http://www.w3.org/2000/svg">
<mask id="path-1-outside-1_78_334" maskUnits="userSpaceOnUse" x="12" y="221" width="241" height="48" fill="black">
<rect fill="white" x="12" y="221" width="241" height="48"/>
<path d="M37.2403 267.623C33.833 267.623 30.6958 267.083 27.8287 266.003C25.0031 264.881 22.5308 263.323 20.4116 261.328C18.2924 259.292 16.6511 256.903 15.4877 254.16C14.3242 251.418 13.7425 248.426 13.7425 245.185C13.7425 241.944 14.3242 238.952 15.4877 236.21C16.6511 233.467 18.2924 231.099 20.4116 229.104C22.5723 227.068 25.0862 225.51 27.9534 224.43C30.8205 223.308 33.9577 222.747 37.365 222.747C41.0631 222.747 44.3873 223.349 47.3375 224.554C50.3293 225.759 52.8432 227.525 54.8793 229.852L49.7683 234.838C48.0647 233.135 46.2156 231.888 44.2211 231.099C42.2681 230.268 40.1074 229.852 37.7389 229.852C35.4536 229.852 33.3344 230.226 31.3814 230.974C29.4285 231.722 27.7456 232.782 26.3328 234.153C24.92 235.524 23.8189 237.145 23.0294 239.014C22.2815 240.884 21.9075 242.941 21.9075 245.185C21.9075 247.387 22.2815 249.423 23.0294 251.293C23.8189 253.163 24.92 254.804 26.3328 256.217C27.7456 257.588 29.4077 258.648 31.3191 259.396C33.2305 260.144 35.3497 260.518 37.6766 260.518C39.8373 260.518 41.915 260.185 43.9095 259.521C45.9455 258.814 47.8777 257.651 49.706 256.03L54.3183 262.076C52.033 263.904 49.3736 265.296 46.3403 266.252C43.3485 267.166 40.3152 267.623 37.2403 267.623ZM46.6519 261.016V244.686H54.3183V262.076L46.6519 261.016ZM58.8347 267L78.4682 223.37H86.4463L106.142 267H97.6654L80.7744 227.671H84.0154L67.1867 267H58.8347ZM67.8723 256.903L70.0538 250.545H93.614L95.7955 256.903H67.8723ZM111.691 267V223.37H118.36L137.432 255.22H133.942L152.703 223.37H159.372L159.434 267H151.768L151.706 235.399H153.326L137.37 262.014H133.755L117.55 235.399H119.419V267H111.691ZM178.699 241.508H200.389V248.177H178.699V241.508ZM179.322 260.206H203.942V267H171.219V223.37H203.069V230.164H179.322V260.206ZM212.975 267V223.37H230.925C234.79 223.37 238.093 223.993 240.835 225.24C243.619 226.486 245.759 228.273 247.255 230.6C248.751 232.927 249.499 235.69 249.499 238.89C249.499 242.089 248.751 244.853 247.255 247.18C245.759 249.465 243.619 251.231 240.835 252.477C238.093 253.682 234.79 254.285 230.925 254.285H217.462L221.077 250.608V267H212.975ZM241.521 267L230.489 251.169H239.153L250.247 267H241.521ZM221.077 251.48L217.462 247.616H230.551C234.125 247.616 236.805 246.847 238.592 245.31C240.42 243.772 241.334 241.632 241.334 238.89C241.334 236.106 240.42 233.966 238.592 232.47C236.805 230.974 234.125 230.226 230.551 230.226H217.462L221.077 226.237V251.48Z"/>
</mask>
<path d="M37.2403 267.623C33.833 267.623 30.6958 267.083 27.8287 266.003C25.0031 264.881 22.5308 263.323 20.4116 261.328C18.2924 259.292 16.6511 256.903 15.4877 254.16C14.3242 251.418 13.7425 248.426 13.7425 245.185C13.7425 241.944 14.3242 238.952 15.4877 236.21C16.6511 233.467 18.2924 231.099 20.4116 229.104C22.5723 227.068 25.0862 225.51 27.9534 224.43C30.8205 223.308 33.9577 222.747 37.365 222.747C41.0631 222.747 44.3873 223.349 47.3375 224.554C50.3293 225.759 52.8432 227.525 54.8793 229.852L49.7683 234.838C48.0647 233.135 46.2156 231.888 44.2211 231.099C42.2681 230.268 40.1074 229.852 37.7389 229.852C35.4536 229.852 33.3344 230.226 31.3814 230.974C29.4285 231.722 27.7456 232.782 26.3328 234.153C24.92 235.524 23.8189 237.145 23.0294 239.014C22.2815 240.884 21.9075 242.941 21.9075 245.185C21.9075 247.387 22.2815 249.423 23.0294 251.293C23.8189 253.163 24.92 254.804 26.3328 256.217C27.7456 257.588 29.4077 258.648 31.3191 259.396C33.2305 260.144 35.3497 260.518 37.6766 260.518C39.8373 260.518 41.915 260.185 43.9095 259.521C45.9455 258.814 47.8777 257.651 49.706 256.03L54.3183 262.076C52.033 263.904 49.3736 265.296 46.3403 266.252C43.3485 267.166 40.3152 267.623 37.2403 267.623ZM46.6519 261.016V244.686H54.3183V262.076L46.6519 261.016ZM58.8347 267L78.4682 223.37H86.4463L106.142 267H97.6654L80.7744 227.671H84.0154L67.1867 267H58.8347ZM67.8723 256.903L70.0538 250.545H93.614L95.7955 256.903H67.8723ZM111.691 267V223.37H118.36L137.432 255.22H133.942L152.703 223.37H159.372L159.434 267H151.768L151.706 235.399H153.326L137.37 262.014H133.755L117.55 235.399H119.419V267H111.691ZM178.699 241.508H200.389V248.177H178.699V241.508ZM179.322 260.206H203.942V267H171.219V223.37H203.069V230.164H179.322V260.206ZM212.975 267V223.37H230.925C234.79 223.37 238.093 223.993 240.835 225.24C243.619 226.486 245.759 228.273 247.255 230.6C248.751 232.927 249.499 235.69 249.499 238.89C249.499 242.089 248.751 244.853 247.255 247.18C245.759 249.465 243.619 251.231 240.835 252.477C238.093 253.682 234.79 254.285 230.925 254.285H217.462L221.077 250.608V267H212.975ZM241.521 267L230.489 251.169H239.153L250.247 267H241.521ZM221.077 251.48L217.462 247.616H230.551C234.125 247.616 236.805 246.847 238.592 245.31C240.42 243.772 241.334 241.632 241.334 238.89C241.334 236.106 240.42 233.966 238.592 232.47C236.805 230.974 234.125 230.226 230.551 230.226H217.462L221.077 226.237V251.48Z" fill="#547D74"/>
<path d="M27.8287 266.003L27.3367 267.242L27.3476 267.246L27.3586 267.25L27.8287 266.003ZM20.4116 261.328L19.4878 262.29L19.4978 262.299L20.4116 261.328ZM15.4877 254.16L16.7151 253.64H16.7151L15.4877 254.16ZM15.4877 236.21L16.7151 236.73L15.4877 236.21ZM20.4116 229.104L21.3254 230.075L21.326 230.075L20.4116 229.104ZM27.9534 224.43L28.4235 225.677L28.4314 225.674L28.4392 225.671L27.9534 224.43ZM47.3375 224.554L46.8334 225.789L46.8394 225.791L47.3375 224.554ZM54.8793 229.852L55.8104 230.807L56.7144 229.925L55.8827 228.974L54.8793 229.852ZM49.7683 234.838L48.8255 235.781L49.7568 236.713L50.6994 235.793L49.7683 234.838ZM44.2211 231.099L43.699 232.326L43.7146 232.332L43.7304 232.339L44.2211 231.099ZM31.3814 230.974L31.8583 232.219L31.3814 230.974ZM26.3328 234.153L27.2615 235.11L26.3328 234.153ZM23.0294 239.014L21.8011 238.496L21.7961 238.508L21.7914 238.519L23.0294 239.014ZM23.0294 251.293L21.7914 251.788L21.7961 251.8L21.8011 251.812L23.0294 251.293ZM26.3328 256.217L25.39 257.16L25.397 257.167L25.4042 257.174L26.3328 256.217ZM31.3191 259.396L31.805 258.154L31.3191 259.396ZM43.9095 259.521L44.3311 260.785L44.3388 260.783L44.3465 260.78L43.9095 259.521ZM49.706 256.03L50.7661 255.221L49.8956 254.08L48.8216 255.032L49.706 256.03ZM54.3183 262.076L55.1513 263.117L56.1687 262.303L55.3784 261.267L54.3183 262.076ZM46.3403 266.252L46.7299 267.527L46.741 267.524L46.3403 266.252ZM46.6519 261.016H45.3186V262.178L46.4694 262.337L46.6519 261.016ZM46.6519 244.686V243.353H45.3186V244.686H46.6519ZM54.3183 244.686H55.6517V243.353H54.3183V244.686ZM54.3183 262.076L54.1358 263.397L55.6517 263.606V262.076H54.3183ZM37.2403 267.623V266.29C33.9757 266.29 30.9998 265.773 28.2988 264.755L27.8287 266.003L27.3586 267.25C30.3919 268.393 33.6904 268.957 37.2403 268.957V267.623ZM27.8287 266.003L28.3207 264.764C25.6443 263.701 23.3167 262.231 21.3254 260.357L20.4116 261.328L19.4978 262.299C21.7448 264.414 24.3619 266.061 27.3367 267.242L27.8287 266.003ZM20.4116 261.328L21.3354 260.367C19.348 258.457 17.8092 256.218 16.7151 253.64L15.4877 254.16L14.2602 254.681C15.4931 257.587 17.2369 260.127 19.4878 262.29L20.4116 261.328ZM15.4877 254.16L16.7151 253.64C15.6275 251.076 15.0758 248.263 15.0758 245.185H13.7425H12.4091C12.4091 248.589 13.0209 251.76 14.2602 254.681L15.4877 254.16ZM13.7425 245.185H15.0758C15.0758 242.107 15.6275 239.294 16.7151 236.73L15.4877 236.21L14.2602 235.689C13.0209 238.61 12.4091 241.781 12.4091 245.185H13.7425ZM15.4877 236.21L16.7151 236.73C17.8081 234.154 19.3441 231.94 21.3254 230.075L20.4116 229.104L19.4978 228.133C17.2408 230.258 15.4941 232.78 14.2602 235.689L15.4877 236.21ZM20.4116 229.104L21.326 230.075C23.3543 228.163 25.716 226.698 28.4235 225.677L27.9534 224.43L27.4832 223.182C24.4565 224.322 21.7904 225.973 19.4972 228.134L20.4116 229.104ZM27.9534 224.43L28.4392 225.671C31.1358 224.616 34.1062 224.08 37.365 224.08V222.747V221.413C33.8091 221.413 30.5051 221.999 27.4675 223.188L27.9534 224.43ZM37.365 222.747V224.08C40.9176 224.08 44.0667 224.659 46.8334 225.789L47.3375 224.554L47.8417 223.32C44.7079 222.04 41.2086 221.413 37.365 221.413V222.747ZM47.3375 224.554L46.8394 225.791C49.6455 226.921 51.9837 228.568 53.8759 230.73L54.8793 229.852L55.8827 228.974C53.7027 226.483 51.0131 224.597 47.8357 223.317L47.3375 224.554ZM54.8793 229.852L53.9482 228.898L48.8372 233.884L49.7683 234.838L50.6994 235.793L55.8104 230.807L54.8793 229.852ZM49.7683 234.838L50.7112 233.896C48.8946 232.079 46.8954 230.723 44.7118 229.859L44.2211 231.099L43.7304 232.339C45.5358 233.053 47.2348 234.191 48.8255 235.781L49.7683 234.838ZM44.2211 231.099L44.7432 229.872C42.607 228.963 40.266 228.519 37.7389 228.519V229.852V231.186C39.9488 231.186 41.9293 231.573 43.699 232.326L44.2211 231.099ZM37.7389 229.852V228.519C35.3057 228.519 33.0233 228.918 30.9046 229.729L31.3814 230.974L31.8583 232.219C33.6455 231.535 35.6014 231.186 37.7389 231.186V229.852ZM31.3814 230.974L30.9046 229.729C28.7937 230.537 26.9544 231.691 25.4042 233.196L26.3328 234.153L27.2615 235.11C28.5368 233.872 30.0632 232.907 31.8583 232.219L31.3814 230.974ZM26.3328 234.153L25.4042 233.196C23.8592 234.696 22.6579 236.467 21.8011 238.496L23.0294 239.014L24.2577 239.533C24.9799 237.823 25.9809 236.353 27.2615 235.11L26.3328 234.153ZM23.0294 239.014L21.7914 238.519C20.9737 240.564 20.5742 242.791 20.5742 245.185H21.9075H23.2408C23.2408 243.091 23.5892 241.205 24.2674 239.51L23.0294 239.014ZM21.9075 245.185H20.5742C20.5742 247.541 20.9748 249.747 21.7914 251.788L23.0294 251.293L24.2674 250.798C23.5881 249.1 23.2408 247.234 23.2408 245.185H21.9075ZM23.0294 251.293L21.8011 251.812C22.6564 253.838 23.8536 255.624 25.39 257.16L26.3328 256.217L27.2756 255.274C25.9865 253.985 24.9814 252.489 24.2577 250.775L23.0294 251.293ZM26.3328 256.217L25.4042 257.174C26.9496 258.674 28.7639 259.828 30.8332 260.638L31.3191 259.396L31.805 258.154C30.0515 257.468 28.5416 256.503 27.2615 255.26L26.3328 256.217ZM31.3191 259.396L30.8332 260.638C32.9188 261.454 35.2055 261.851 37.6766 261.851V260.518V259.184C35.4939 259.184 33.5423 258.834 31.805 258.154L31.3191 259.396ZM37.6766 260.518V261.851C39.9766 261.851 42.1969 261.497 44.3311 260.785L43.9095 259.521L43.4878 258.256C41.633 258.874 39.6981 259.184 37.6766 259.184V260.518ZM43.9095 259.521L44.3465 260.78C46.568 260.01 48.6489 258.749 50.5904 257.028L49.706 256.03L48.8216 255.032C47.1065 256.553 45.3231 257.619 43.4724 258.261L43.9095 259.521ZM49.706 256.03L48.6459 256.839L53.2583 262.885L54.3183 262.076L55.3784 261.267L50.7661 255.221L49.706 256.03ZM54.3183 262.076L53.4854 261.035C51.3394 262.752 48.8295 264.07 45.9396 264.98L46.3403 266.252L46.741 267.524C49.9177 266.523 52.7265 265.057 55.1513 263.117L54.3183 262.076ZM46.3403 266.252L45.9507 264.977C43.0829 265.853 40.1808 266.29 37.2403 266.29V267.623V268.957C40.4495 268.957 43.6141 268.479 46.7299 267.527L46.3403 266.252ZM46.6519 261.016H47.9853V244.686H46.6519H45.3186V261.016H46.6519ZM46.6519 244.686V246.02H54.3183V244.686V243.353H46.6519V244.686ZM54.3183 244.686H52.985V262.076H54.3183H55.6517V244.686H54.3183ZM54.3183 262.076L54.5009 260.755L46.8345 259.696L46.6519 261.016L46.4694 262.337L54.1358 263.397L54.3183 262.076ZM58.8347 267L57.6188 266.453L56.7726 268.333H58.8347V267ZM78.4682 223.37V222.037H77.6061L77.2523 222.823L78.4682 223.37ZM86.4463 223.37L87.6615 222.821L87.3072 222.037H86.4463V223.37ZM106.142 267V268.333H108.207L107.357 266.451L106.142 267ZM97.6654 267L96.4403 267.526L96.7869 268.333H97.6654V267ZM80.7744 227.671V226.337H78.7506L79.5492 228.197L80.7744 227.671ZM84.0154 227.671L85.2413 228.195L86.0362 226.337H84.0154V227.671ZM67.1867 267V268.333H68.0665L68.4126 267.525L67.1867 267ZM67.8723 256.903L66.6112 256.47L66.0052 258.236H67.8723V256.903ZM70.0538 250.545V249.212H69.1017L68.7927 250.113L70.0538 250.545ZM93.614 250.545L94.8752 250.113L94.5662 249.212H93.614V250.545ZM95.7955 256.903V258.236H97.6627L97.0567 256.47L95.7955 256.903ZM58.8347 267L60.0506 267.547L79.6841 223.917L78.4682 223.37L77.2523 222.823L57.6188 266.453L58.8347 267ZM78.4682 223.37V224.703H86.4463V223.37V222.037H78.4682V223.37ZM86.4463 223.37L85.231 223.919L104.927 267.549L106.142 267L107.357 266.451L87.6615 222.821L86.4463 223.37ZM106.142 267V265.667H97.6654V267V268.333H106.142V267ZM97.6654 267L98.8905 266.474L81.9995 227.145L80.7744 227.671L79.5492 228.197L96.4403 267.526L97.6654 267ZM80.7744 227.671V229.004H84.0154V227.671V226.337H80.7744V227.671ZM84.0154 227.671L82.7896 227.146L65.9609 266.475L67.1867 267L68.4126 267.525L85.2413 228.195L84.0154 227.671ZM67.1867 267V265.667H58.8347V267V268.333H67.1867V267ZM67.8723 256.903L69.1335 257.336L71.315 250.978L70.0538 250.545L68.7927 250.113L66.6112 256.47L67.8723 256.903ZM70.0538 250.545V251.879H93.614V250.545V249.212H70.0538V250.545ZM93.614 250.545L92.3529 250.978L94.5344 257.336L95.7955 256.903L97.0567 256.47L94.8752 250.113L93.614 250.545ZM95.7955 256.903V255.569H67.8723V256.903V258.236H95.7955V256.903ZM111.691 267H110.357V268.333H111.691V267ZM111.691 223.37V222.037H110.357V223.37H111.691ZM118.36 223.37L119.504 222.685L119.116 222.037H118.36V223.37ZM137.432 255.22V256.553H139.785L138.576 254.535L137.432 255.22ZM133.942 255.22L132.793 254.543L131.609 256.553H133.942V255.22ZM152.703 223.37V222.037H151.941L151.554 222.693L152.703 223.37ZM159.372 223.37L160.705 223.368L160.704 222.037H159.372V223.37ZM159.434 267V268.333H160.77L160.768 266.998L159.434 267ZM151.768 267L150.435 267.003L150.437 268.333H151.768V267ZM151.706 235.399V234.066H150.37L150.372 235.402L151.706 235.399ZM153.326 235.399L154.47 236.085L155.68 234.066H153.326V235.399ZM137.37 262.014V263.347H138.125L138.514 262.699L137.37 262.014ZM133.755 262.014L132.616 262.707L133.006 263.347H133.755V262.014ZM117.55 235.399V234.066H115.177L116.411 236.093L117.55 235.399ZM119.42 235.399H120.753V234.066H119.42V235.399ZM119.42 267V268.333H120.753V267H119.42ZM111.691 267H113.024V223.37H111.691H110.357V267H111.691ZM111.691 223.37V224.703H118.36V223.37V222.037H111.691V223.37ZM118.36 223.37L117.216 224.055L136.289 255.905L137.432 255.22L138.576 254.535L119.504 222.685L118.36 223.37ZM137.432 255.22V253.887H133.942V255.22V256.553H137.432V255.22ZM133.942 255.22L135.091 255.897L153.852 224.047L152.703 223.37L151.554 222.693L132.793 254.543L133.942 255.22ZM152.703 223.37V224.703H159.372V223.37V222.037H152.703V223.37ZM159.372 223.37L158.039 223.372L158.101 267.002L159.434 267L160.768 266.998L160.705 223.368L159.372 223.37ZM159.434 267V265.667H151.768V267V268.333H159.434V267ZM151.768 267L153.101 266.997L153.039 235.397L151.706 235.399L150.372 235.402L150.435 267.003L151.768 267ZM151.706 235.399V236.733H153.326V235.399V234.066H151.706V235.399ZM153.326 235.399L152.183 234.714L136.227 261.328L137.37 262.014L138.514 262.699L154.47 236.085L153.326 235.399ZM137.37 262.014V260.68H133.755V262.014V263.347H137.37V262.014ZM133.755 262.014L134.894 261.32L118.688 234.706L117.55 235.399L116.411 236.093L132.616 262.707L133.755 262.014ZM117.55 235.399V236.733H119.42V235.399V234.066H117.55V235.399ZM119.42 235.399H118.086V267H119.42H120.753V235.399H119.42ZM119.42 267V265.667H111.691V267V268.333H119.42V267ZM178.699 241.508V240.174H177.365V241.508H178.699ZM200.389 241.508H201.722V240.174H200.389V241.508ZM200.389 248.177V249.51H201.722V248.177H200.389ZM178.699 248.177H177.365V249.51H178.699V248.177ZM179.322 260.206H177.989V261.54H179.322V260.206ZM203.942 260.206H205.275V258.873H203.942V260.206ZM203.942 267V268.333H205.275V267H203.942ZM171.219 267H169.886V268.333H171.219V267ZM171.219 223.37V222.037H169.886V223.37H171.219ZM203.069 223.37H204.403V222.037H203.069V223.37ZM203.069 230.164V231.497H204.403V230.164H203.069ZM179.322 230.164V228.831H177.989V230.164H179.322ZM178.699 241.508V242.841H200.389V241.508V240.174H178.699V241.508ZM200.389 241.508H199.056V248.177H200.389H201.722V241.508H200.389ZM200.389 248.177V246.843H178.699V248.177V249.51H200.389V248.177ZM178.699 248.177H180.032V241.508H178.699H177.365V248.177H178.699ZM179.322 260.206V261.54H203.942V260.206V258.873H179.322V260.206ZM203.942 260.206H202.609V267H203.942H205.275V260.206H203.942ZM203.942 267V265.667H171.219V267V268.333H203.942V267ZM171.219 267H172.553V223.37H171.219H169.886V267H171.219ZM171.219 223.37V224.703H203.069V223.37V222.037H171.219V223.37ZM203.069 223.37H201.736V230.164H203.069H204.403V223.37H203.069ZM203.069 230.164V228.831H179.322V230.164V231.497H203.069V230.164ZM179.322 230.164H177.989V260.206H179.322H180.655V230.164H179.322ZM212.975 267H211.641V268.333H212.975V267ZM212.975 223.37V222.037H211.641V223.37H212.975ZM240.835 225.24L240.284 226.454L240.291 226.457L240.835 225.24ZM247.255 230.6L248.377 229.879V229.879L247.255 230.6ZM247.255 247.18L248.371 247.91L248.377 247.901L247.255 247.18ZM240.835 252.477L241.372 253.698L241.38 253.694L240.835 252.477ZM217.462 254.285L216.511 253.35L214.282 255.618H217.462V254.285ZM221.077 250.608H222.411V247.349L220.126 249.673L221.077 250.608ZM221.077 267V268.333H222.411V267H221.077ZM241.521 267L240.427 267.762L240.825 268.333H241.521V267ZM230.489 251.169V249.835H227.935L229.395 251.931L230.489 251.169ZM239.153 251.169L240.245 250.403L239.846 249.835H239.153V251.169ZM250.247 267V268.333H252.81L251.339 266.235L250.247 267ZM221.077 251.48L220.104 252.391L222.411 254.857V251.48H221.077ZM217.462 247.616V246.282H214.389L216.489 248.527L217.462 247.616ZM238.592 245.31L237.734 244.289L237.728 244.294L237.722 244.299L238.592 245.31ZM238.592 232.47L237.736 233.492L237.742 233.497L237.747 233.502L238.592 232.47ZM217.462 230.226L216.474 229.331L214.455 231.559H217.462V230.226ZM221.077 226.237H222.411V222.78L220.089 225.342L221.077 226.237ZM212.975 267H214.308V223.37H212.975H211.641V267H212.975ZM212.975 223.37V224.703H230.925V223.37V222.037H212.975V223.37ZM230.925 223.37V224.703C234.651 224.703 237.756 225.305 240.284 226.454L240.835 225.24L241.387 224.026C238.43 222.682 234.928 222.037 230.925 222.037V223.37ZM240.835 225.24L240.291 226.457C242.863 227.609 244.792 229.234 246.134 231.321L247.255 230.6L248.377 229.879C246.727 227.312 244.375 225.364 241.38 224.023L240.835 225.24ZM247.255 230.6L246.134 231.321C247.471 233.401 248.166 235.905 248.166 238.89H249.499H250.832C250.832 235.476 250.032 232.453 248.377 229.879L247.255 230.6ZM249.499 238.89H248.166C248.166 241.875 247.471 244.379 246.134 246.459L247.255 247.18L248.377 247.901C250.032 245.327 250.832 242.304 250.832 238.89H249.499ZM247.255 247.18L246.14 246.449C244.8 248.497 242.87 250.106 240.291 251.261L240.835 252.477L241.38 253.694C244.369 252.356 246.719 250.433 248.371 247.91L247.255 247.18ZM240.835 252.477L240.299 251.257C237.767 252.369 234.656 252.952 230.925 252.952V254.285V255.618C234.923 255.618 238.419 254.996 241.372 253.698L240.835 252.477ZM230.925 254.285V252.952H217.462V254.285V255.618H230.925V254.285ZM217.462 254.285L218.413 255.22L222.028 251.542L221.077 250.608L220.126 249.673L216.511 253.35L217.462 254.285ZM221.077 250.608H219.744V267H221.077H222.411V250.608H221.077ZM221.077 267V265.667H212.975V267V268.333H221.077V267ZM241.521 267L242.615 266.238L231.583 250.406L230.489 251.169L229.395 251.931L240.427 267.762L241.521 267ZM230.489 251.169V252.502H239.153V251.169V249.835H230.489V251.169ZM239.153 251.169L238.061 251.934L249.155 267.765L250.247 267L251.339 266.235L240.245 250.403L239.153 251.169ZM250.247 267V265.667H241.521V267V268.333H250.247V267ZM221.077 251.48L222.051 250.569L218.436 246.705L217.462 247.616L216.489 248.527L220.104 252.391L221.077 251.48ZM217.462 247.616V248.949H230.551V247.616V246.282H217.462V247.616ZM230.551 247.616V248.949C234.285 248.949 237.335 248.15 239.461 246.32L238.592 245.31L237.722 244.299C236.275 245.544 233.964 246.282 230.551 246.282V247.616ZM238.592 245.31L239.45 246.33C241.626 244.5 242.667 241.961 242.667 238.89H241.334H240.001C240.001 241.304 239.214 243.044 237.734 244.289L238.592 245.31ZM241.334 238.89H242.667C242.667 235.785 241.63 233.234 239.436 231.438L238.592 232.47L237.747 233.502C239.209 234.698 240.001 236.426 240.001 238.89H241.334ZM238.592 232.47L239.448 231.448C237.322 229.668 234.278 228.893 230.551 228.893V230.226V231.559C233.971 231.559 236.288 232.28 237.736 233.492L238.592 232.47ZM230.551 230.226V228.893H217.462V230.226V231.559H230.551V230.226ZM217.462 230.226L218.45 231.122L222.065 227.132L221.077 226.237L220.089 225.342L216.474 229.331L217.462 230.226ZM221.077 226.237H219.744V251.48H221.077H222.411V226.237H221.077Z" fill="white" mask="url(#path-1-outside-1_78_334)"/>
<g filter="url(#filter0_d_78_334)">
<mask id="path-3-outside-2_78_334" maskUnits="userSpaceOnUse" x="260.809" y="221" width="392" height="48" fill="black">
<rect fill="white" x="260.809" y="221" width="392" height="48"/>
<path d="M284.862 267.374C281.579 267.374 278.546 266.834 275.762 265.753C272.978 264.632 270.568 263.073 268.532 261.079C266.496 259.084 264.896 256.737 263.733 254.036C262.611 251.335 262.05 248.385 262.05 245.185C262.05 241.985 262.611 239.035 263.733 236.334C264.896 233.633 266.496 231.286 268.532 229.291C270.61 227.297 273.04 225.759 275.824 224.679C278.608 223.557 281.642 222.996 284.924 222.996C288.082 222.996 291.053 223.536 293.837 224.617C296.621 225.655 298.969 227.234 300.88 229.354L297.951 232.283C296.164 230.455 294.191 229.146 292.03 228.356C289.869 227.525 287.542 227.11 285.049 227.11C282.431 227.11 280 227.567 277.757 228.481C275.513 229.354 273.56 230.621 271.898 232.283C270.236 233.904 268.927 235.815 267.971 238.017C267.057 240.178 266.6 242.567 266.6 245.185C266.6 247.803 267.057 250.213 267.971 252.415C268.927 254.576 270.236 256.487 271.898 258.149C273.56 259.77 275.513 261.037 277.757 261.951C280 262.824 282.431 263.26 285.049 263.26C287.542 263.26 289.869 262.845 292.03 262.014C294.191 261.183 296.164 259.853 297.951 258.025L300.88 260.954C298.969 263.073 296.621 264.673 293.837 265.753C291.053 266.834 288.062 267.374 284.862 267.374ZM342.625 223.37H347.175V267H342.625V223.37ZM315.325 267H310.713V223.37H315.325V267ZM343.061 246.868H314.826V242.817H343.061V246.868ZM354.435 267L374.38 223.37H378.93L398.875 267H394.013L375.689 226.05H377.559L359.234 267H354.435ZM362.288 255.345L363.659 251.605H389.027L390.398 255.345H362.288ZM406.092 267V223.37H410.705V263.011H435.138V267H406.092ZM442.796 267V223.37H447.408V263.011H471.841V267H442.796ZM483.613 242.879H506.674V246.806H483.613V242.879ZM484.111 263.011H510.351V267H479.499V223.37H509.417V227.359H484.111V263.011ZM521.193 267V223.37H524.995L555.1 261.266H553.105V223.37H557.655V267H553.853L523.811 229.104H525.805V267H521.193ZM591.031 267.374C587.707 267.374 584.632 266.834 581.806 265.753C579.022 264.632 576.591 263.073 574.514 261.079C572.478 259.084 570.878 256.737 569.714 254.036C568.593 251.335 568.032 248.385 568.032 245.185C568.032 241.985 568.593 239.035 569.714 236.334C570.878 233.633 572.498 231.286 574.576 229.291C576.654 227.297 579.085 225.759 581.869 224.679C584.694 223.557 587.769 222.996 591.093 222.996C594.417 222.996 597.451 223.515 600.193 224.554C602.977 225.593 605.346 227.172 607.299 229.291L604.431 232.221C602.603 230.392 600.588 229.083 598.386 228.294C596.183 227.505 593.815 227.11 591.28 227.11C588.579 227.11 586.086 227.567 583.801 228.481C581.557 229.354 579.583 230.621 577.88 232.283C576.217 233.904 574.909 235.815 573.953 238.017C573.039 240.178 572.582 242.567 572.582 245.185C572.582 247.761 573.039 250.151 573.953 252.353C574.909 254.555 576.217 256.487 577.88 258.149C579.583 259.77 581.557 261.037 583.801 261.951C586.086 262.824 588.558 263.26 591.218 263.26C593.711 263.26 596.059 262.886 598.261 262.138C600.505 261.39 602.562 260.123 604.431 258.336L607.049 261.827C604.972 263.655 602.541 265.047 599.757 266.003C596.973 266.917 594.064 267.374 591.031 267.374ZM602.624 261.266V245.185H607.049V261.827L602.624 261.266ZM624.217 242.879H647.278V246.806H624.217V242.879ZM624.715 263.011H650.956V267H620.103V223.37H650.021V227.359H624.715V263.011Z"/>
</mask>
<path d="M284.862 267.374C281.579 267.374 278.546 266.834 275.762 265.753C272.978 264.632 270.568 263.073 268.532 261.079C266.496 259.084 264.896 256.737 263.733 254.036C262.611 251.335 262.05 248.385 262.05 245.185C262.05 241.985 262.611 239.035 263.733 236.334C264.896 233.633 266.496 231.286 268.532 229.291C270.61 227.297 273.04 225.759 275.824 224.679C278.608 223.557 281.642 222.996 284.924 222.996C288.082 222.996 291.053 223.536 293.837 224.617C296.621 225.655 298.969 227.234 300.88 229.354L297.951 232.283C296.164 230.455 294.191 229.146 292.03 228.356C289.869 227.525 287.542 227.11 285.049 227.11C282.431 227.11 280 227.567 277.757 228.481C275.513 229.354 273.56 230.621 271.898 232.283C270.236 233.904 268.927 235.815 267.971 238.017C267.057 240.178 266.6 242.567 266.6 245.185C266.6 247.803 267.057 250.213 267.971 252.415C268.927 254.576 270.236 256.487 271.898 258.149C273.56 259.77 275.513 261.037 277.757 261.951C280 262.824 282.431 263.26 285.049 263.26C287.542 263.26 289.869 262.845 292.03 262.014C294.191 261.183 296.164 259.853 297.951 258.025L300.88 260.954C298.969 263.073 296.621 264.673 293.837 265.753C291.053 266.834 288.062 267.374 284.862 267.374ZM342.625 223.37H347.175V267H342.625V223.37ZM315.325 267H310.713V223.37H315.325V267ZM343.061 246.868H314.826V242.817H343.061V246.868ZM354.435 267L374.38 223.37H378.93L398.875 267H394.013L375.689 226.05H377.559L359.234 267H354.435ZM362.288 255.345L363.659 251.605H389.027L390.398 255.345H362.288ZM406.092 267V223.37H410.705V263.011H435.138V267H406.092ZM442.796 267V223.37H447.408V263.011H471.841V267H442.796ZM483.613 242.879H506.674V246.806H483.613V242.879ZM484.111 263.011H510.351V267H479.499V223.37H509.417V227.359H484.111V263.011ZM521.193 267V223.37H524.995L555.1 261.266H553.105V223.37H557.655V267H553.853L523.811 229.104H525.805V267H521.193ZM591.031 267.374C587.707 267.374 584.632 266.834 581.806 265.753C579.022 264.632 576.591 263.073 574.514 261.079C572.478 259.084 570.878 256.737 569.714 254.036C568.593 251.335 568.032 248.385 568.032 245.185C568.032 241.985 568.593 239.035 569.714 236.334C570.878 233.633 572.498 231.286 574.576 229.291C576.654 227.297 579.085 225.759 581.869 224.679C584.694 223.557 587.769 222.996 591.093 222.996C594.417 222.996 597.451 223.515 600.193 224.554C602.977 225.593 605.346 227.172 607.299 229.291L604.431 232.221C602.603 230.392 600.588 229.083 598.386 228.294C596.183 227.505 593.815 227.11 591.28 227.11C588.579 227.11 586.086 227.567 583.801 228.481C581.557 229.354 579.583 230.621 577.88 232.283C576.217 233.904 574.909 235.815 573.953 238.017C573.039 240.178 572.582 242.567 572.582 245.185C572.582 247.761 573.039 250.151 573.953 252.353C574.909 254.555 576.217 256.487 577.88 258.149C579.583 259.77 581.557 261.037 583.801 261.951C586.086 262.824 588.558 263.26 591.218 263.26C593.711 263.26 596.059 262.886 598.261 262.138C600.505 261.39 602.562 260.123 604.431 258.336L607.049 261.827C604.972 263.655 602.541 265.047 599.757 266.003C596.973 266.917 594.064 267.374 591.031 267.374ZM602.624 261.266V245.185H607.049V261.827L602.624 261.266ZM624.217 242.879H647.278V246.806H624.217V242.879ZM624.715 263.011H650.956V267H620.103V223.37H650.021V227.359H624.715V263.011Z" fill="#9F9F9F"/>
<path d="M275.762 265.753L275.388 266.681L275.4 266.686L275.762 265.753ZM268.532 261.079L267.832 261.793L268.532 261.079ZM263.733 254.036L262.809 254.419L262.814 254.431L263.733 254.036ZM263.733 236.334L262.814 235.939L262.809 235.951L263.733 236.334ZM268.532 229.291L267.839 228.57L267.832 228.577L268.532 229.291ZM275.824 224.679L276.186 225.611L276.198 225.606L275.824 224.679ZM293.837 224.617L293.476 225.549L293.488 225.554L293.837 224.617ZM300.88 229.354L301.588 230.061L302.259 229.389L301.623 228.684L300.88 229.354ZM297.951 232.283L297.236 232.982L297.943 233.705L298.658 232.99L297.951 232.283ZM292.03 228.356L291.671 229.29L291.679 229.293L291.687 229.296L292.03 228.356ZM277.757 228.481L278.119 229.413L278.126 229.41L278.134 229.407L277.757 228.481ZM271.898 232.283L272.596 232.999L272.605 232.99L271.898 232.283ZM267.971 238.017L267.054 237.619L267.05 237.628L267.971 238.017ZM267.971 252.415L267.047 252.799L267.052 252.809L267.056 252.82L267.971 252.415ZM271.898 258.149L271.191 258.857L271.2 258.865L271.898 258.149ZM277.757 261.951L277.379 262.877L277.387 262.881L277.394 262.883L277.757 261.951ZM292.03 262.014L292.389 262.947V262.947L292.03 262.014ZM297.951 258.025L298.658 257.318L297.943 256.602L297.236 257.326L297.951 258.025ZM300.88 260.954L301.623 261.624L302.259 260.919L301.588 260.247L300.88 260.954ZM293.837 265.753L294.199 266.686L293.837 265.753ZM284.862 267.374V266.374C281.691 266.374 278.782 265.853 276.124 264.821L275.762 265.753L275.4 266.686C278.311 267.815 281.468 268.374 284.862 268.374V267.374ZM275.762 265.753L276.136 264.826C273.467 263.75 271.169 262.262 269.232 260.364L268.532 261.079L267.832 261.793C269.967 263.884 272.489 265.513 275.388 266.681L275.762 265.753ZM268.532 261.079L269.232 260.364C267.292 258.464 265.765 256.225 264.651 253.64L263.733 254.036L262.814 254.431C264.028 257.248 265.7 259.705 267.832 261.793L268.532 261.079ZM263.733 254.036L264.656 253.652C263.589 251.084 263.05 248.265 263.05 245.185H262.05H261.05C261.05 248.504 261.632 251.586 262.809 254.419L263.733 254.036ZM262.05 245.185H263.05C263.05 242.105 263.589 239.286 264.656 236.718L263.733 236.334L262.809 235.951C261.632 238.784 261.05 241.866 261.05 245.185H262.05ZM263.733 236.334L264.651 236.73C265.765 234.145 267.292 231.906 269.232 230.006L268.532 229.291L267.832 228.577C265.7 230.665 264.028 233.122 262.814 235.939L263.733 236.334ZM268.532 229.291L269.224 230.013C271.203 228.113 273.521 226.646 276.186 225.611L275.824 224.679L275.463 223.747C272.56 224.873 270.016 226.481 267.839 228.57L268.532 229.291ZM275.824 224.679L276.198 225.606C278.853 224.537 281.758 223.996 284.924 223.996V222.996V221.996C281.526 221.996 278.364 222.577 275.451 223.751L275.824 224.679ZM284.924 222.996V223.996C287.966 223.996 290.813 224.516 293.476 225.549L293.837 224.617L294.199 223.684C291.293 222.557 288.199 221.996 284.924 221.996V222.996ZM293.837 224.617L293.488 225.554C296.128 226.539 298.339 228.028 300.138 230.023L300.88 229.354L301.623 228.684C299.599 226.44 297.115 224.772 294.187 223.68L293.837 224.617ZM300.88 229.354L300.173 228.646L297.244 231.576L297.951 232.283L298.658 232.99L301.588 230.061L300.88 229.354ZM297.951 232.283L298.666 231.584C296.787 229.661 294.689 228.263 292.373 227.417L292.03 228.356L291.687 229.296C293.692 230.028 295.542 231.249 297.236 232.982L297.951 232.283ZM292.03 228.356L292.389 227.423C290.105 226.545 287.655 226.11 285.049 226.11V227.11V228.11C287.429 228.11 289.633 228.506 291.671 229.29L292.03 228.356ZM285.049 227.11V226.11C282.312 226.11 279.752 226.588 277.379 227.555L277.757 228.481L278.134 229.407C280.249 228.546 282.55 228.11 285.049 228.11V227.11ZM277.757 228.481L277.394 227.549C275.024 228.471 272.953 229.813 271.191 231.576L271.898 232.283L272.605 232.99C274.166 231.429 276.001 230.237 278.119 229.413L277.757 228.481ZM271.898 232.283L271.2 231.567C269.441 233.281 268.059 235.302 267.054 237.619L267.971 238.017L268.888 238.415C269.794 236.328 271.03 234.526 272.596 232.999L271.898 232.283ZM267.971 238.017L267.05 237.628C266.078 239.925 265.6 242.449 265.6 245.185H266.6H267.6C267.6 242.686 268.036 240.431 268.892 238.407L267.971 238.017ZM266.6 245.185H265.6C265.6 247.921 266.078 250.463 267.047 252.799L267.971 252.415L268.895 252.032C268.036 249.962 267.6 247.684 267.6 245.185H266.6ZM267.971 252.415L267.056 252.82C268.062 255.093 269.441 257.107 271.191 258.856L271.898 258.149L272.605 257.442C271.03 255.868 269.792 254.059 268.886 252.011L267.971 252.415ZM271.898 258.149L271.2 258.865C272.958 260.58 275.021 261.917 277.379 262.877L277.757 261.951L278.134 261.025C276.004 260.158 274.161 258.96 272.596 257.433L271.898 258.149ZM277.757 261.951L277.394 262.883C279.763 263.805 282.318 264.26 285.049 264.26V263.26V262.26C282.544 262.26 280.238 261.843 278.119 261.019L277.757 261.951ZM285.049 263.26V264.26C287.655 264.26 290.105 263.825 292.389 262.947L292.03 262.014L291.671 261.08C289.633 261.864 287.429 262.26 285.049 262.26V263.26ZM292.03 262.014L292.389 262.947C294.697 262.059 296.79 260.644 298.666 258.724L297.951 258.025L297.236 257.326C295.539 259.062 293.684 260.306 291.671 261.08L292.03 262.014ZM297.951 258.025L297.244 258.732L300.173 261.661L300.88 260.954L301.588 260.247L298.658 257.318L297.951 258.025ZM300.88 260.954L300.138 260.284C298.336 262.282 296.121 263.795 293.476 264.821L293.837 265.753L294.199 266.686C297.122 265.551 299.602 263.865 301.623 261.624L300.88 260.954ZM293.837 265.753L293.476 264.821C290.815 265.854 287.947 266.374 284.862 266.374V267.374V268.374C288.176 268.374 291.292 267.814 294.199 266.686L293.837 265.753ZM342.625 223.37V222.37H341.625V223.37H342.625ZM347.175 223.37H348.175V222.37H347.175V223.37ZM347.175 267V268H348.175V267H347.175ZM342.625 267H341.625V268H342.625V267ZM315.325 267V268H316.325V267H315.325ZM310.713 267H309.713V268H310.713V267ZM310.713 223.37V222.37H309.713V223.37H310.713ZM315.325 223.37H316.325V222.37H315.325V223.37ZM343.061 246.868V247.868H344.061V246.868H343.061ZM314.826 246.868H313.826V247.868H314.826V246.868ZM314.826 242.817V241.817H313.826V242.817H314.826ZM343.061 242.817H344.061V241.817H343.061V242.817ZM342.625 223.37V224.37H347.175V223.37V222.37H342.625V223.37ZM347.175 223.37H346.175V267H347.175H348.175V223.37H347.175ZM347.175 267V266H342.625V267V268H347.175V267ZM342.625 267H343.625V223.37H342.625H341.625V267H342.625ZM315.325 267V266H310.713V267V268H315.325V267ZM310.713 267H311.713V223.37H310.713H309.713V267H310.713ZM310.713 223.37V224.37H315.325V223.37V222.37H310.713V223.37ZM315.325 223.37H314.325V267H315.325H316.325V223.37H315.325ZM343.061 246.868V245.868H314.826V246.868V247.868H343.061V246.868ZM314.826 246.868H315.826V242.817H314.826H313.826V246.868H314.826ZM314.826 242.817V243.817H343.061V242.817V241.817H314.826V242.817ZM343.061 242.817H342.061V246.868H343.061H344.061V242.817H343.061ZM354.435 267L353.525 266.584L352.878 268H354.435V267ZM374.38 223.37V222.37H373.737L373.47 222.954L374.38 223.37ZM378.93 223.37L379.839 222.954L379.572 222.37H378.93V223.37ZM398.875 267V268H400.432L399.784 266.584L398.875 267ZM394.013 267L393.101 267.408L393.365 268H394.013V267ZM375.689 226.05V225.05H374.146L374.776 226.459L375.689 226.05ZM377.559 226.05L378.471 226.459L379.102 225.05H377.559V226.05ZM359.234 267V268H359.882L360.147 267.408L359.234 267ZM362.288 255.345L361.349 255L360.856 256.345H362.288V255.345ZM363.659 251.605V250.605H362.961L362.72 251.261L363.659 251.605ZM389.027 251.605L389.966 251.261L389.726 250.605H389.027V251.605ZM390.398 255.345V256.345H391.83L391.337 255L390.398 255.345ZM354.435 267L355.344 267.416L375.289 223.786L374.38 223.37L373.47 222.954L353.525 266.584L354.435 267ZM374.38 223.37V224.37H378.93V223.37V222.37H374.38V223.37ZM378.93 223.37L378.02 223.786L397.965 267.416L398.875 267L399.784 266.584L379.839 222.954L378.93 223.37ZM398.875 267V266H394.013V267V268H398.875V267ZM394.013 267L394.926 266.592L376.602 225.642L375.689 226.05L374.776 226.459L393.101 267.408L394.013 267ZM375.689 226.05V227.05H377.559V226.05V225.05H375.689V226.05ZM377.559 226.05L376.646 225.642L358.321 266.592L359.234 267L360.147 267.408L378.471 226.459L377.559 226.05ZM359.234 267V266H354.435V267V268H359.234V267ZM362.288 255.345L363.227 255.689L364.598 251.949L363.659 251.605L362.72 251.261L361.349 255L362.288 255.345ZM363.659 251.605V252.605H389.027V251.605V250.605H363.659V251.605ZM389.027 251.605L388.088 251.949L389.459 255.689L390.398 255.345L391.337 255L389.966 251.261L389.027 251.605ZM390.398 255.345V254.345H362.288V255.345V256.345H390.398V255.345ZM406.092 267H405.092V268H406.092V267ZM406.092 223.37V222.37H405.092V223.37H406.092ZM410.705 223.37H411.705V222.37H410.705V223.37ZM410.705 263.011H409.705V264.011H410.705V263.011ZM435.137 263.011H436.137V262.011H435.137V263.011ZM435.137 267V268H436.137V267H435.137ZM406.092 267H407.092V223.37H406.092H405.092V267H406.092ZM406.092 223.37V224.37H410.705V223.37V222.37H406.092V223.37ZM410.705 223.37H409.705V263.011H410.705H411.705V223.37H410.705ZM410.705 263.011V264.011H435.137V263.011V262.011H410.705V263.011ZM435.137 263.011H434.137V267H435.137H436.137V263.011H435.137ZM435.137 267V266H406.092V267V268H435.137V267ZM442.796 267H441.796V268H442.796V267ZM442.796 223.37V222.37H441.796V223.37H442.796ZM447.408 223.37H448.408V222.37H447.408V223.37ZM447.408 263.011H446.408V264.011H447.408V263.011ZM471.841 263.011H472.841V262.011H471.841V263.011ZM471.841 267V268H472.841V267H471.841ZM442.796 267H443.796V223.37H442.796H441.796V267H442.796ZM442.796 223.37V224.37H447.408V223.37V222.37H442.796V223.37ZM447.408 223.37H446.408V263.011H447.408H448.408V223.37H447.408ZM447.408 263.011V264.011H471.841V263.011V262.011H447.408V263.011ZM471.841 263.011H470.841V267H471.841H472.841V263.011H471.841ZM471.841 267V266H442.796V267V268H471.841V267ZM483.613 242.879V241.879H482.613V242.879H483.613ZM506.674 242.879H507.674V241.879H506.674V242.879ZM506.674 246.806V247.806H507.674V246.806H506.674ZM483.613 246.806H482.613V247.806H483.613V246.806ZM484.111 263.011H483.111V264.011H484.111V263.011ZM510.351 263.011H511.351V262.011H510.351V263.011ZM510.351 267V268H511.351V267H510.351ZM479.499 267H478.499V268H479.499V267ZM479.499 223.37V222.37H478.499V223.37H479.499ZM509.417 223.37H510.417V222.37H509.417V223.37ZM509.417 227.359V228.359H510.417V227.359H509.417ZM484.111 227.359V226.359H483.111V227.359H484.111ZM483.613 242.879V243.879H506.674V242.879V241.879H483.613V242.879ZM506.674 242.879H505.674V246.806H506.674H507.674V242.879H506.674ZM506.674 246.806V245.806H483.613V246.806V247.806H506.674V246.806ZM483.613 246.806H484.613V242.879H483.613H482.613V246.806H483.613ZM484.111 263.011V264.011H510.351V263.011V262.011H484.111V263.011ZM510.351 263.011H509.351V267H510.351H511.351V263.011H510.351ZM510.351 267V266H479.499V267V268H510.351V267ZM479.499 267H480.499V223.37H479.499H478.499V267H479.499ZM479.499 223.37V224.37H509.417V223.37V222.37H479.499V223.37ZM509.417 223.37H508.417V227.359H509.417H510.417V223.37H509.417ZM509.417 227.359V226.359H484.111V227.359V228.359H509.417V227.359ZM484.111 227.359H483.111V263.011H484.111H485.111V227.359H484.111ZM521.193 267H520.193V268H521.193V267ZM521.193 223.37V222.37H520.193V223.37H521.193ZM524.995 223.37L525.778 222.748L525.478 222.37H524.995V223.37ZM555.1 261.266V262.266H557.171L555.883 260.644L555.1 261.266ZM553.105 261.266H552.105V262.266H553.105V261.266ZM553.105 223.37V222.37H552.105V223.37H553.105ZM557.655 223.37H558.655V222.37H557.655V223.37ZM557.655 267V268H558.655V267H557.655ZM553.853 267L553.07 267.621L553.37 268H553.853V267ZM523.811 229.104V228.104H521.742L523.027 229.726L523.811 229.104ZM525.806 229.104H526.806V228.104H525.806V229.104ZM525.806 267V268H526.806V267H525.806ZM521.193 267H522.193V223.37H521.193H520.193V267H521.193ZM521.193 223.37V224.37H524.995V223.37V222.37H521.193V223.37ZM524.995 223.37L524.212 223.992L554.317 261.888L555.1 261.266L555.883 260.644L525.778 222.748L524.995 223.37ZM555.1 261.266V260.266H553.105V261.266V262.266H555.1V261.266ZM553.105 261.266H554.105V223.37H553.105H552.105V261.266H553.105ZM553.105 223.37V224.37H557.655V223.37V222.37H553.105V223.37ZM557.655 223.37H556.655V267H557.655H558.655V223.37H557.655ZM557.655 267V266H553.853V267V268H557.655V267ZM553.853 267L554.637 266.379L524.595 228.483L523.811 229.104L523.027 229.726L553.07 267.621L553.853 267ZM523.811 229.104V230.104H525.806V229.104V228.104H523.811V229.104ZM525.806 229.104H524.806V267H525.806H526.806V229.104H525.806ZM525.806 267V266H521.193V267V268H525.806V267ZM581.806 265.753L581.432 266.681L581.441 266.684L581.449 266.687L581.806 265.753ZM574.514 261.079L573.814 261.793L573.821 261.8L574.514 261.079ZM569.714 254.036L568.791 254.419L568.796 254.431L569.714 254.036ZM569.714 236.334L568.796 235.939L568.791 235.951L569.714 236.334ZM574.576 229.291L575.269 230.013L574.576 229.291ZM581.869 224.679L582.23 225.611L582.238 225.608L581.869 224.679ZM600.193 224.554L599.839 225.489L599.844 225.491L600.193 224.554ZM607.299 229.291L608.013 229.991L608.678 229.312L608.034 228.614L607.299 229.291ZM604.431 232.221L603.724 232.928L604.439 233.643L605.146 232.92L604.431 232.221ZM598.386 228.294L598.723 227.353L598.386 228.294ZM583.801 228.481L584.163 229.413L584.172 229.409L583.801 228.481ZM577.88 232.283L578.578 232.999L578.578 232.999L577.88 232.283ZM573.953 238.017L573.035 237.619L573.032 237.628L573.953 238.017ZM573.953 252.353L573.029 252.736L573.032 252.744L573.035 252.751L573.953 252.353ZM577.88 258.149L577.172 258.856L577.181 258.865L577.19 258.874L577.88 258.149ZM583.801 261.951L583.423 262.877L583.434 262.882L583.444 262.886L583.801 261.951ZM598.261 262.138L597.945 261.19L597.939 261.191L598.261 262.138ZM604.431 258.336L605.231 257.736L604.555 256.835L603.741 257.613L604.431 258.336ZM607.049 261.827L607.71 262.577L608.404 261.967L607.849 261.227L607.049 261.827ZM599.757 266.003L600.069 266.953L600.082 266.949L599.757 266.003ZM602.624 261.266H601.624V262.147L602.498 262.258L602.624 261.266ZM602.624 245.185V244.185H601.624V245.185H602.624ZM607.049 245.185H608.049V244.185H607.049V245.185ZM607.049 261.827L606.923 262.819L608.049 262.961V261.827H607.049ZM591.031 267.374V266.374C587.817 266.374 584.864 265.852 582.163 264.819L581.806 265.753L581.449 266.687C584.399 267.816 587.597 268.374 591.031 268.374V267.374ZM581.806 265.753L582.18 264.826C579.509 263.75 577.188 262.26 575.206 260.357L574.514 261.079L573.821 261.8C575.995 263.887 578.535 265.513 581.432 266.681L581.806 265.753ZM574.514 261.079L575.214 260.364C573.273 258.464 571.747 256.225 570.633 253.64L569.714 254.036L568.796 254.431C570.009 257.248 571.682 259.705 573.814 261.793L574.514 261.079ZM569.714 254.036L570.638 253.652C569.571 251.084 569.032 248.265 569.032 245.185H568.032H567.032C567.032 248.504 567.614 251.586 568.791 254.419L569.714 254.036ZM568.032 245.185H569.032C569.032 242.105 569.571 239.286 570.638 236.718L569.714 236.334L568.791 235.951C567.614 238.784 567.032 241.866 567.032 245.185H568.032ZM569.714 236.334L570.633 236.73C571.745 234.149 573.289 231.913 575.269 230.013L574.576 229.291L573.884 228.57C571.708 230.659 570.011 233.118 568.796 235.939L569.714 236.334ZM574.576 229.291L575.269 230.013C577.247 228.113 579.565 226.646 582.23 225.611L581.869 224.679L581.507 223.747C578.604 224.873 576.06 226.481 573.884 228.57L574.576 229.291ZM581.869 224.679L582.238 225.608C584.935 224.537 587.883 223.996 591.093 223.996V222.996V221.996C587.654 221.996 584.453 222.577 581.5 223.75L581.869 224.679ZM591.093 222.996V223.996C594.312 223.996 597.224 224.499 599.839 225.489L600.193 224.554L600.547 223.619C597.678 222.532 594.522 221.996 591.093 221.996V222.996ZM600.193 224.554L599.844 225.491C602.485 226.477 604.72 227.969 606.563 229.969L607.299 229.291L608.034 228.614C605.971 226.375 603.469 224.709 600.543 223.617L600.193 224.554ZM607.299 229.291L606.584 228.592L603.717 231.521L604.431 232.221L605.146 232.92L608.013 229.991L607.299 229.291ZM604.431 232.221L605.139 231.514C603.217 229.592 601.078 228.197 598.723 227.353L598.386 228.294L598.048 229.235C600.097 229.97 601.989 231.193 603.724 232.928L604.431 232.221ZM598.386 228.294L598.723 227.353C596.404 226.521 593.92 226.11 591.28 226.11V227.11V228.11C593.709 228.11 595.963 228.488 598.048 229.235L598.386 228.294ZM591.28 227.11V226.11C588.464 226.11 585.844 226.587 583.429 227.553L583.801 228.481L584.172 229.409C586.328 228.547 588.694 228.11 591.28 228.11V227.11ZM583.801 228.481L583.438 227.549C581.071 228.47 578.982 229.81 577.181 231.567L577.88 232.283L578.578 232.999C580.184 231.432 582.043 230.237 584.163 229.413L583.801 228.481ZM577.88 232.283L577.181 231.567C575.423 233.281 574.041 235.302 573.035 237.619L573.953 238.017L574.87 238.415C575.776 236.328 577.012 234.526 578.578 232.999L577.88 232.283ZM573.953 238.017L573.032 237.628C572.06 239.925 571.582 242.449 571.582 245.185H572.582H573.582C573.582 242.686 574.018 240.431 574.874 238.407L573.953 238.017ZM572.582 245.185H571.582C571.582 247.882 572.061 250.403 573.029 252.736L573.953 252.353L574.876 251.969C574.017 249.898 573.582 247.64 573.582 245.185H572.582ZM573.953 252.353L573.035 252.751C574.04 255.066 575.42 257.104 577.172 258.856L577.88 258.149L578.587 257.442C577.015 255.871 575.777 254.044 574.87 251.955L573.953 252.353ZM577.88 258.149L577.19 258.874C578.987 260.583 581.068 261.918 583.423 262.877L583.801 261.951L584.178 261.025C582.046 260.157 580.179 258.957 578.569 257.425L577.88 258.149ZM583.801 261.951L583.444 262.886C585.853 263.805 588.447 264.26 591.218 264.26V263.26V262.26C588.67 262.26 586.319 261.843 584.157 261.017L583.801 261.951ZM591.218 263.26V264.26C593.812 264.26 596.269 263.871 598.583 263.085L598.261 262.138L597.939 261.191C595.848 261.902 593.609 262.26 591.218 262.26V263.26ZM598.261 262.138L598.577 263.087C600.974 262.288 603.156 260.938 605.122 259.059L604.431 258.336L603.741 257.613C601.967 259.308 600.036 260.493 597.945 261.19L598.261 262.138ZM604.431 258.336L603.631 258.936L606.249 262.427L607.049 261.827L607.849 261.227L605.231 257.736L604.431 258.336ZM607.049 261.827L606.389 261.076C604.415 262.813 602.1 264.141 599.432 265.057L599.757 266.003L600.082 266.949C602.981 265.953 605.528 264.498 607.71 262.577L607.049 261.827ZM599.757 266.003L599.445 265.053C596.765 265.933 593.962 266.374 591.031 266.374V267.374V268.374C594.166 268.374 597.181 267.901 600.069 266.953L599.757 266.003ZM602.624 261.266H603.624V245.185H602.624H601.624V261.266H602.624ZM602.624 245.185V246.185H607.049V245.185V244.185H602.624V245.185ZM607.049 245.185H606.049V261.827H607.049H608.049V245.185H607.049ZM607.049 261.827L607.175 260.835L602.75 260.274L602.624 261.266L602.498 262.258L606.923 262.819L607.049 261.827ZM624.217 242.879V241.879H623.217V242.879H624.217ZM647.278 242.879H648.278V241.879H647.278V242.879ZM647.278 246.806V247.806H648.278V246.806H647.278ZM624.217 246.806H623.217V247.806H624.217V246.806ZM624.715 263.011H623.715V264.011H624.715V263.011ZM650.956 263.011H651.956V262.011H650.956V263.011ZM650.956 267V268H651.956V267H650.956ZM620.103 267H619.103V268H620.103V267ZM620.103 223.37V222.37H619.103V223.37H620.103ZM650.021 223.37H651.021V222.37H650.021V223.37ZM650.021 227.359V228.359H651.021V227.359H650.021ZM624.715 227.359V226.359H623.715V227.359H624.715ZM624.217 242.879V243.879H647.278V242.879V241.879H624.217V242.879ZM647.278 242.879H646.278V246.806H647.278H648.278V242.879H647.278ZM647.278 246.806V245.806H624.217V246.806V247.806H647.278V246.806ZM624.217 246.806H625.217V242.879H624.217H623.217V246.806H624.217ZM624.715 263.011V264.011H650.956V263.011V262.011H624.715V263.011ZM650.956 263.011H649.956V267H650.956H651.956V263.011H650.956ZM650.956 267V266H620.103V267V268H650.956V267ZM620.103 267H621.103V223.37H620.103H619.103V267H620.103ZM620.103 223.37V224.37H650.021V223.37V222.37H620.103V223.37ZM650.021 223.37H649.021V227.359H650.021H651.021V223.37H650.021ZM650.021 227.359V226.359H624.715V227.359V228.359H650.021V227.359ZM624.715 227.359H623.715V263.011H624.715H625.715V227.359H624.715Z" fill="white" mask="url(#path-3-outside-2_78_334)"/>
</g>
<path d="M366.192 183.819L389.419 160.588L390.303 159.704L389.419 158.821L351.314 120.716L390.303 81.7268L389.419 80.843L366.192 57.6125L365.307 56.7288L326.318 95.718L287.328 56.7288L262.33 81.7268L263.214 82.6106L301.319 120.716L262.33 159.704L287.328 184.702L326.318 145.713L365.307 184.702L366.192 183.819Z" fill="#8F75FF" stroke="white" stroke-width="2.5"/>
<path d="M546.204 179.177L544.902 177.231L467.053 60.8806L466.014 59.3279L464.976 60.8806L387.127 177.231L385.825 179.177H546.204ZM466.014 122.9L480.017 143.825H452.014L466.014 122.9Z" fill="#3C0080" stroke="white" stroke-width="2.5"/>
<path d="M184.384 87.1777C166.24 87.1777 151.478 101.94 151.478 120.084C151.478 138.228 166.24 152.991 184.384 152.991C202.528 152.991 217.291 138.228 217.291 120.084C217.291 101.94 202.528 87.1777 184.384 87.1777ZM184.384 185.843C148.126 185.843 118.626 156.343 118.626 120.084C118.626 83.8257 148.126 54.3257 184.384 54.3257C220.643 54.3257 250.143 83.8257 250.143 120.084C250.143 156.343 220.643 185.843 184.384 185.843Z" fill="#3C0080"/>
<path d="M202.398 116.865V37.4314H166.369V116.865H202.398Z" fill="#547D74" stroke="white" stroke-width="2.5"/>
<path d="M142.83 335H140.614L147.023 317.545H149.205L155.614 335H153.398L148.182 320.307H148.045L142.83 335ZM143.648 328.182H152.58V330.057H143.648V328.182ZM172.492 335V317.545H178.39C179.754 317.545 180.873 317.778 181.748 318.244C182.623 318.705 183.271 319.338 183.691 320.145C184.112 320.952 184.322 321.869 184.322 322.898C184.322 323.926 184.112 324.838 183.691 325.634C183.271 326.429 182.626 327.054 181.757 327.509C180.887 327.957 179.776 328.182 178.424 328.182H173.651V326.273H178.356C179.288 326.273 180.038 326.136 180.606 325.864C181.18 325.591 181.595 325.205 181.85 324.705C182.112 324.199 182.242 323.597 182.242 322.898C182.242 322.199 182.112 321.588 181.85 321.065C181.589 320.543 181.171 320.139 180.597 319.855C180.024 319.565 179.265 319.42 178.322 319.42H174.606V335H172.492ZM180.708 327.159L185.004 335H182.549L178.322 327.159H180.708ZM202.004 335V317.545H212.538V319.42H204.118V325.318H211.993V327.193H204.118V333.125H212.674V335H202.004ZM249.918 317.545H252.338L257.179 325.693H257.384L262.225 317.545H264.645L258.338 327.807V335H256.225V327.807L249.918 317.545ZM295.446 326.273C295.446 328.114 295.113 329.705 294.448 331.045C293.784 332.386 292.872 333.42 291.713 334.148C290.554 334.875 289.23 335.239 287.741 335.239C286.252 335.239 284.929 334.875 283.769 334.148C282.61 333.42 281.698 332.386 281.034 331.045C280.369 329.705 280.037 328.114 280.037 326.273C280.037 324.432 280.369 322.841 281.034 321.5C281.698 320.159 282.61 319.125 283.769 318.398C284.929 317.67 286.252 317.307 287.741 317.307C289.23 317.307 290.554 317.67 291.713 318.398C292.872 319.125 293.784 320.159 294.448 321.5C295.113 322.841 295.446 324.432 295.446 326.273ZM293.4 326.273C293.4 324.761 293.147 323.486 292.642 322.446C292.142 321.406 291.463 320.619 290.605 320.085C289.752 319.551 288.798 319.284 287.741 319.284C286.684 319.284 285.727 319.551 284.869 320.085C284.017 320.619 283.338 321.406 282.832 322.446C282.332 323.486 282.082 324.761 282.082 326.273C282.082 327.784 282.332 329.06 282.832 330.099C283.338 331.139 284.017 331.926 284.869 332.46C285.727 332.994 286.684 333.261 287.741 333.261C288.798 333.261 289.752 332.994 290.605 332.46C291.463 331.926 292.142 331.139 292.642 330.099C293.147 329.06 293.4 327.784 293.4 326.273ZM324.614 317.545H326.728V329.102C326.728 330.295 326.446 331.361 325.884 332.298C325.327 333.23 324.54 333.966 323.523 334.506C322.506 335.04 321.313 335.307 319.944 335.307C318.574 335.307 317.381 335.04 316.364 334.506C315.347 333.966 314.557 333.23 313.995 332.298C313.438 331.361 313.16 330.295 313.16 329.102V317.545H315.273V328.932C315.273 329.784 315.461 330.543 315.836 331.207C316.211 331.866 316.745 332.386 317.438 332.767C318.137 333.142 318.972 333.33 319.944 333.33C320.915 333.33 321.75 333.142 322.449 332.767C323.148 332.386 323.682 331.866 324.052 331.207C324.427 330.543 324.614 329.784 324.614 328.932V317.545ZM366.019 335V317.545H371.916C373.28 317.545 374.399 317.778 375.274 318.244C376.149 318.705 376.797 319.338 377.217 320.145C377.638 320.952 377.848 321.869 377.848 322.898C377.848 323.926 377.638 324.838 377.217 325.634C376.797 326.429 376.152 327.054 375.283 327.509C374.414 327.957 373.303 328.182 371.95 328.182H367.178V326.273H371.882C372.814 326.273 373.564 326.136 374.132 325.864C374.706 325.591 375.121 325.205 375.377 324.705C375.638 324.199 375.769 323.597 375.769 322.898C375.769 322.199 375.638 321.588 375.377 321.065C375.115 320.543 374.698 320.139 374.124 319.855C373.55 319.565 372.791 319.42 371.848 319.42H368.132V335H366.019ZM374.235 327.159L378.53 335H376.075L371.848 327.159H374.235ZM395.53 335V317.545H406.064V319.42H397.644V325.318H405.519V327.193H397.644V333.125H406.201V335H395.53ZM424.75 335H422.534L428.943 317.545H431.125L437.534 335H435.318L430.102 320.307H429.966L424.75 335ZM425.568 328.182H434.5V330.057H425.568V328.182ZM459.799 335H454.413V317.545H460.038C461.731 317.545 463.18 317.895 464.384 318.594C465.589 319.287 466.512 320.284 467.154 321.585C467.796 322.881 468.117 324.432 468.117 326.239C468.117 328.057 467.793 329.622 467.146 330.935C466.498 332.241 465.555 333.247 464.316 333.952C463.077 334.651 461.572 335 459.799 335ZM456.526 333.125H459.663C461.106 333.125 462.302 332.847 463.251 332.29C464.2 331.733 464.907 330.94 465.373 329.912C465.839 328.884 466.072 327.659 466.072 326.239C466.072 324.83 465.842 323.616 465.381 322.599C464.921 321.577 464.234 320.793 463.319 320.247C462.404 319.696 461.265 319.42 459.901 319.42H456.526V333.125ZM483.502 317.545H485.923L490.764 325.693H490.968L495.809 317.545H498.23L491.923 327.807V335H489.809V327.807L483.502 317.545ZM517.476 330.091V329.989C517.487 328.903 517.601 328.04 517.816 327.398C518.032 326.756 518.339 326.236 518.737 325.838C519.135 325.44 519.612 325.074 520.169 324.739C520.504 324.534 520.805 324.293 521.072 324.014C521.339 323.73 521.549 323.403 521.703 323.034C521.862 322.665 521.941 322.256 521.941 321.807C521.941 321.25 521.811 320.767 521.549 320.358C521.288 319.949 520.939 319.634 520.501 319.412C520.064 319.19 519.578 319.08 519.044 319.08C518.578 319.08 518.129 319.176 517.697 319.369C517.265 319.562 516.905 319.866 516.615 320.281C516.325 320.696 516.157 321.239 516.112 321.909H513.964C514.01 320.943 514.26 320.116 514.714 319.429C515.174 318.741 515.78 318.216 516.53 317.852C517.285 317.489 518.123 317.307 519.044 317.307C520.044 317.307 520.913 317.506 521.652 317.903C522.396 318.301 522.97 318.847 523.373 319.54C523.782 320.233 523.987 321.023 523.987 321.909C523.987 322.534 523.89 323.099 523.697 323.605C523.51 324.111 523.237 324.562 522.879 324.96C522.527 325.358 522.101 325.71 521.601 326.017C521.101 326.33 520.7 326.659 520.399 327.006C520.098 327.347 519.879 327.753 519.743 328.224C519.606 328.696 519.532 329.284 519.521 329.989V330.091H517.476ZM518.566 335.136C518.146 335.136 517.785 334.986 517.484 334.685C517.183 334.384 517.032 334.023 517.032 333.602C517.032 333.182 517.183 332.821 517.484 332.52C517.785 332.219 518.146 332.068 518.566 332.068C518.987 332.068 519.348 332.219 519.649 332.52C519.95 332.821 520.101 333.182 520.101 333.602C520.101 333.881 520.03 334.136 519.888 334.369C519.751 334.602 519.566 334.79 519.334 334.932C519.106 335.068 518.851 335.136 518.566 335.136Z" fill="#7D7D7D"/>
<defs>
<filter id="filter0_d_78_334" x="259.05" y="220.996" width="394.906" height="50.3779" filterUnits="userSpaceOnUse" color-interpolation-filters="sRGB">
<feFlood flood-opacity="0" result="BackgroundImageFix"/>
<feColorMatrix in="SourceAlpha" type="matrix" values="0 0 0 0 0 0 0 0 0 0 0 0 0 0 0 0 0 0 127 0" result="hardAlpha"/>
<feOffset dy="1"/>
<feGaussianBlur stdDeviation="1"/>
<feComposite in2="hardAlpha" operator="out"/>
<feColorMatrix type="matrix" values="0 0 0 0 0 0 0 0 0 0 0 0 0 0 0 0 0 0 0.05 0"/>
<feBlend mode="normal" in2="BackgroundImageFix" result="effect1_dropShadow_78_334"/>
<feBlend mode="normal" in="SourceGraphic" in2="effect1_dropShadow_78_334" result="shape"/>
</filter>
</defs>
</svg>
