<?xml version="1.0" encoding="utf-8"?>
<!-- Generated by Mocodo 4.3.2 -->
<svg width="670" height="415" viewBox="0 0 670 415" xmlns="http://www.w3.org/2000/svg">
<rect x="0" y="0" width="670" height="415" fill="#f7f7f7" stroke="none" stroke-width="0"/>

<!-- Association APPARTENIR -->
<g>
	<line x1="178" y1="60" x2="60" y2="60" stroke="#d6604d" stroke-width="2"/>
	<line x1="60" y1="212" x2="60" y2="60" stroke="#d6604d" stroke-width="2"/>
	<g>
		<path d="M92 35 a14 14 90 0 1 14 14 V60 h-92 V49 a14 14 90 0 1 14 -14" fill="#f4a582" stroke="#f4a582" stroke-width="0"/>
		<path d="M106 60 v11 a14 14 90 0 1 -14 14 H28 a14 14 90 0 1 -14 -14 V60 H92" fill="#fddbc7" stroke="#fddbc7" stroke-width="0"/>
		<rect x="14" y="35" width="92" height="50" fill="none" rx="14" stroke="#d6604d" stroke-width="2"/>
		<line x1="14" y1="60" x2="106" y2="60" stroke="#d6604d" stroke-width="1"/>
		<text x="21" y="52.75" fill="#000000" font-family="Verdana" font-size="12">APPARTENIR</text>
	</g>
	<text x="113" y="77" fill="#2166ac" font-family="Verdana" font-size="12">1,1</text>
	<text x="65" y="128" fill="#2166ac" font-family="Verdana" font-size="12">0,N</text>
</g>

<!-- Association COMPOSER -->
<g>
	<line x1="178" y1="60" x2="291" y2="60" stroke="#d6604d" stroke-width="2"/>
	<line x1="429" y1="60" x2="291" y2="60" stroke="#d6604d" stroke-width="2"/>
	<g>
		<path d="M319 35 a14 14 90 0 1 14 14 V60 h-84 V49 a14 14 90 0 1 14 -14" fill="#f4a582" stroke="#f4a582" stroke-width="0"/>
		<path d="M333 60 v11 a14 14 90 0 1 -14 14 H263 a14 14 90 0 1 -14 -14 V60 H84" fill="#fddbc7" stroke="#fddbc7" stroke-width="0"/>
		<rect x="249" y="35" width="84" height="50" fill="none" rx="14" stroke="#d6604d" stroke-width="2"/>
		<line x1="249" y1="60" x2="333" y2="60" stroke="#d6604d" stroke-width="1"/>
		<text x="256" y="52.75" fill="#000000" font-family="Verdana" font-size="12">COMPOSER</text>
	</g>
	<text x="222" y="52" fill="#2166ac" font-family="Verdana" font-size="12">0,N</text>
	<text x="339" y="77" fill="#2166ac" font-family="Verdana" font-size="12">1,1</text>
</g>

<!-- Association CONTENIR -->
<g>
	<line x1="429" y1="60" x2="583" y2="60" stroke="#d6604d" stroke-width="2"/>
	<line x1="583" y1="212" x2="583" y2="60" stroke="#d6604d" stroke-width="2"/>
	<g>
		<path d="M609 35 a14 14 90 0 1 14 14 V60 h-80 V49 a14 14 90 0 1 14 -14" fill="#f4a582" stroke="#f4a582" stroke-width="0"/>
		<path d="M623 60 v11 a14 14 90 0 1 -14 14 H557 a14 14 90 0 1 -14 -14 V60 H80" fill="#fddbc7" stroke="#fddbc7" stroke-width="0"/>
		<rect x="543" y="35" width="80" height="50" fill="none" rx="14" stroke="#d6604d" stroke-width="2"/>
		<line x1="543" y1="60" x2="623" y2="60" stroke="#d6604d" stroke-width="1"/>
		<text x="551" y="52.75" fill="#000000" font-family="Verdana" font-size="12">CONTENIR</text>
	</g>
	<text x="498" y="77" fill="#2166ac" font-family="Verdana" font-size="12">0,N</text>
	<text x="588" y="170" fill="#2166ac" font-family="Verdana" font-size="12">1,1</text>
</g>

<!-- Association EVALUER -->
<g>
	<line x1="178" y1="60" x2="178" y2="212" stroke="#d6604d" stroke-width="2"/>
	<line x1="178" y1="347" x2="178" y2="212" stroke="#d6604d" stroke-width="2"/>
	<g>
		<path d="M199 187 a14 14 90 0 1 14 14 V212 h-70 V201 a14 14 90 0 1 14 -14" fill="#f4a582" stroke="#f4a582" stroke-width="0"/>
		<path d="M213 212 v11 a14 14 90 0 1 -14 14 H157 a14 14 90 0 1 -14 -14 V212 H70" fill="#fddbc7" stroke="#fddbc7" stroke-width="0"/>
		<rect x="143" y="187" width="70" height="50" fill="none" rx="14" stroke="#d6604d" stroke-width="2"/>
		<line x1="143" y1="212" x2="213" y2="212" stroke="#d6604d" stroke-width="1"/>
		<text x="150" y="204.75" fill="#000000" font-family="Verdana" font-size="12">EVALUER</text>
	</g>
	<text x="151" y="128" fill="#2166ac" font-family="Verdana" font-size="12">0,N</text>
	<text x="183" y="305" fill="#2166ac" font-family="Verdana" font-size="12">1,1</text>
</g>

<!-- Association CREER -->
<g>
	<line x1="429" y1="347" x2="291" y2="212" stroke="#d6604d" stroke-width="2"/>
	<line x1="178" y1="60" x2="291" y2="212" stroke="#d6604d" stroke-width="2"/>
	<g>
		<path d="M305 187 a14 14 90 0 1 14 14 V212 h-56 V201 a14 14 90 0 1 14 -14" fill="#f4a582" stroke="#f4a582" stroke-width="0"/>
		<path d="M319 212 v11 a14 14 90 0 1 -14 14 H277 a14 14 90 0 1 -14 -14 V212 H56" fill="#fddbc7" stroke="#fddbc7" stroke-width="0"/>
		<rect x="263" y="187" width="56" height="50" fill="none" rx="14" stroke="#d6604d" stroke-width="2"/>
		<line x1="263" y1="212" x2="319" y2="212" stroke="#d6604d" stroke-width="1"/>
		<text x="271" y="204.75" fill="#000000" font-family="Verdana" font-size="12">CREER</text>
	</g>
	<text x="348" y="304.21" fill="#2166ac" font-family="Verdana" font-size="12">0,N</text>
	<text x="195.53" y="128" fill="#2166ac" font-family="Verdana" font-size="12">0,1</text>
</g>

<!-- Association PARTICIPER -->
<g>
	<line x1="429" y1="347" x2="429" y2="212" stroke="#d6604d" stroke-width="2"/>
	<line x1="429" y1="60" x2="429" y2="212" stroke="#d6604d" stroke-width="2"/>
	<g>
		<path d="M459 187 a14 14 90 0 1 14 14 V212 h-88 V201 a14 14 90 0 1 14 -14" fill="#f4a582" stroke="#f4a582" stroke-width="0"/>
		<path d="M473 212 v11 a14 14 90 0 1 -14 14 H399 a14 14 90 0 1 -14 -14 V212 H88" fill="#fddbc7" stroke="#fddbc7" stroke-width="0"/>
		<rect x="385" y="187" width="88" height="50" fill="none" rx="14" stroke="#d6604d" stroke-width="2"/>
		<line x1="385" y1="212" x2="473" y2="212" stroke="#d6604d" stroke-width="1"/>
		<text x="392" y="204.75" fill="#000000" font-family="Verdana" font-size="12">PARTICIPER</text>
	</g>
	<text x="434" y="280" fill="#2166ac" font-family="Verdana" font-size="12">0,N</text>
	<text x="434" y="128" fill="#2166ac" font-family="Verdana" font-size="12">1,N</text>
</g>

<!-- Association VOTER -->
<g>
	<line x1="429" y1="347" x2="291" y2="347" stroke="#d6604d" stroke-width="2"/>
	<line x1="178" y1="347" x2="291" y2="347" stroke="#d6604d" stroke-width="2"/>
	<g>
		<path d="M305 322 a14 14 90 0 1 14 14 V347 h-56 V336 a14 14 90 0 1 14 -14" fill="#f4a582" stroke="#f4a582" stroke-width="0"/>
		<path d="M319 347 v11 a14 14 90 0 1 -14 14 H277 a14 14 90 0 1 -14 -14 V347 H56" fill="#fddbc7" stroke="#fddbc7" stroke-width="0"/>
		<rect x="263" y="322" width="56" height="50" fill="none" rx="14" stroke="#d6604d" stroke-width="2"/>
		<line x1="263" y1="347" x2="319" y2="347" stroke="#d6604d" stroke-width="1"/>
		<text x="270" y="339.75" fill="#000000" font-family="Verdana" font-size="12">VOTER</text>
	</g>
	<text x="348" y="364" fill="#2166ac" font-family="Verdana" font-size="12">0,N</text>
	<text x="235" y="364" fill="#2166ac" font-family="Verdana" font-size="12">1,1</text>
</g>

<!-- Association REALISER -->
<g>
	<line x1="429" y1="347" x2="583" y2="347" stroke="#d6604d" stroke-width="2"/>
	<line x1="583" y1="212" x2="583" y2="347" stroke="#d6604d" stroke-width="2"/>
	<g>
		<path d="M607 322 a14 14 90 0 1 14 14 V347 h-76 V336 a14 14 90 0 1 14 -14" fill="#f4a582" stroke="#f4a582" stroke-width="0"/>
		<path d="M621 347 v11 a14 14 90 0 1 -14 14 H559 a14 14 90 0 1 -14 -14 V347 H76" fill="#fddbc7" stroke="#fddbc7" stroke-width="0"/>
		<rect x="545" y="322" width="76" height="50" fill="none" rx="14" stroke="#d6604d" stroke-width="2"/>
		<line x1="545" y1="347" x2="621" y2="347" stroke="#d6604d" stroke-width="1"/>
		<text x="553" y="339.75" fill="#000000" font-family="Verdana" font-size="12">REALISER</text>
	</g>
	<text x="488" y="364" fill="#2166ac" font-family="Verdana" font-size="12">0,N</text>
	<text x="588" y="263" fill="#2166ac" font-family="Verdana" font-size="12">1,1</text>
</g>

<!-- Entity DEFI -->
<g>
	<g>
		<rect x="139" y="9" width="78" height="25" fill="#92c5de" stroke="none" stroke-width="0" opacity="1"/>
		<rect x="139" y="34" width="78" height="77" fill="#d1e5f0" stroke="none" stroke-width="0" opacity="1"/>
		<rect x="139" y="9" width="78" height="102" fill="none" stroke="#4393c3" stroke-width="2" opacity="1"/>
		<line x1="139" y1="34" x2="217" y2="34" stroke="#4393c3" stroke-width="1"/>
	</g>
	<text x="163" y="26.75" fill="#000000" font-family="Verdana" font-size="12">DEFI</text>
	<text x="144" y="51.8" fill="#000000" font-family="Verdana" font-size="12">code_defi</text>
	<line x1="144" y1="54" x2="203" y2="54" stroke="#000000" stroke-width="1"/>
	<text x="144" y="68.8" fill="#000000" font-family="Verdana" font-size="12">titre</text>
	<text x="144" y="85.8" fill="#000000" font-family="Verdana" font-size="12">description</text>
	<text x="144" y="102.8" fill="#000000" font-family="Verdana" font-size="12">regles</text>
</g>

<!-- Entity PARTICIPATION -->
<g>
	<g>
		<rect x="365" y="9" width="128" height="25" fill="#92c5de" stroke="none" stroke-width="0" opacity="1"/>
		<rect x="365" y="34" width="128" height="77" fill="#d1e5f0" stroke="none" stroke-width="0" opacity="1"/>
		<rect x="365" y="9" width="128" height="102" fill="none" stroke="#4393c3" stroke-width="2" opacity="1"/>
		<line x1="365" y1="34" x2="493" y2="34" stroke="#4393c3" stroke-width="1"/>
	</g>
	<text x="381" y="26.75" fill="#000000" font-family="Verdana" font-size="12">PARTICIPATION</text>
	<text x="370" y="51.8" fill="#000000" font-family="Verdana" font-size="12">code_participation</text>
	<line x1="370" y1="54" x2="482" y2="54" stroke="#000000" stroke-width="1"/>
	<text x="370" y="68.8" fill="#000000" font-family="Verdana" font-size="12">lien_video</text>
	<text x="370" y="85.8" fill="#000000" font-family="Verdana" font-size="12">lien_capture_ecran</text>
	<text x="370" y="102.8" fill="#000000" font-family="Verdana" font-size="12">description</text>
</g>

<!-- Entity JEU -->
<g>
	<g>
		<rect x="9" y="136" width="102" height="25" fill="#92c5de" stroke="none" stroke-width="0" opacity="1"/>
		<rect x="9" y="161" width="102" height="127" fill="#d1e5f0" stroke="none" stroke-width="0" opacity="1"/>
		<rect x="9" y="136" width="102" height="152" fill="none" stroke="#4393c3" stroke-width="2" opacity="1"/>
		<line x1="9" y1="161" x2="111" y2="161" stroke="#4393c3" stroke-width="1"/>
	</g>
	<text x="49" y="153.75" fill="#000000" font-family="Verdana" font-size="12">JEU</text>
	<text x="14" y="178.8" fill="#000000" font-family="Verdana" font-size="12">code_jeu</text>
	<line x1="14" y1="181" x2="70" y2="181" stroke="#000000" stroke-width="1"/>
	<text x="14" y="195.8" fill="#000000" font-family="Verdana" font-size="12">titre</text>
	<text x="14" y="212.8" fill="#000000" font-family="Verdana" font-size="12">categorie</text>
	<text x="14" y="229.8" fill="#000000" font-family="Verdana" font-size="12">description</text>
	<text x="14" y="246.8" fill="#000000" font-family="Verdana" font-size="12">date_de_sortie</text>
	<text x="14" y="263.8" fill="#000000" font-family="Verdana" font-size="12">plateforme</text>
	<text x="14" y="280.8" fill="#000000" font-family="Verdana" font-size="12">image</text>
</g>

<!-- Entity VOTE_PARTICIPATION -->
<g>
	<g>
		<rect x="505" y="178" width="156" height="25" fill="#92c5de" stroke="none" stroke-width="0" opacity="1"/>
		<rect x="505" y="203" width="156" height="43" fill="#d1e5f0" stroke="none" stroke-width="0" opacity="1"/>
		<rect x="505" y="178" width="156" height="68" fill="none" stroke="#4393c3" stroke-width="2" opacity="1"/>
		<line x1="505" y1="203" x2="661" y2="203" stroke="#4393c3" stroke-width="1"/>
	</g>
	<text x="515" y="195.75" fill="#000000" font-family="Verdana" font-size="12">VOTE_PARTICIPATION</text>
	<text x="510" y="220.8" fill="#000000" font-family="Verdana" font-size="12">code_vote_participation</text>
	<line x1="510" y1="223" x2="656" y2="223" stroke="#000000" stroke-width="1"/>
</g>

<!-- Entity VOTE_DEFI -->
<g>
	<g>
		<rect x="126" y="313" width="104" height="25" fill="#92c5de" stroke="none" stroke-width="0" opacity="1"/>
		<rect x="126" y="338" width="104" height="43" fill="#d1e5f0" stroke="none" stroke-width="0" opacity="1"/>
		<rect x="126" y="313" width="104" height="68" fill="none" stroke="#4393c3" stroke-width="2" opacity="1"/>
		<line x1="126" y1="338" x2="230" y2="338" stroke="#4393c3" stroke-width="1"/>
	</g>
	<text x="143" y="330.75" fill="#000000" font-family="Verdana" font-size="12">VOTE_DEFI</text>
	<text x="131" y="355.8" fill="#000000" font-family="Verdana" font-size="12">code_vote_defi</text>
	<line x1="131" y1="358" x2="224" y2="358" stroke="#000000" stroke-width="1"/>
</g>

<!-- Entity UTILISATEUR -->
<g>
	<g>
		<rect x="375" y="288" width="108" height="25" fill="#92c5de" stroke="none" stroke-width="0" opacity="1"/>
		<rect x="375" y="313" width="108" height="93" fill="#d1e5f0" stroke="none" stroke-width="0" opacity="1"/>
		<rect x="375" y="288" width="108" height="118" fill="none" stroke="#4393c3" stroke-width="2" opacity="1"/>
		<line x1="375" y1="313" x2="483" y2="313" stroke="#4393c3" stroke-width="1"/>
	</g>
	<text x="388" y="305.75" fill="#000000" font-family="Verdana" font-size="12">UTILISATEUR</text>
	<text x="380" y="330.8" fill="#000000" font-family="Verdana" font-size="12">code_utilisateur</text>
	<line x1="380" y1="333" x2="477" y2="333" stroke="#000000" stroke-width="1"/>
	<text x="380" y="347.8" fill="#000000" font-family="Verdana" font-size="12">pseudonyme</text>
	<text x="380" y="364.8" fill="#000000" font-family="Verdana" font-size="12">email</text>
	<text x="380" y="381.8" fill="#000000" font-family="Verdana" font-size="12">mot_de_passe</text>
	<text x="380" y="398.8" fill="#000000" font-family="Verdana" font-size="12">avatar</text>
</g>
</svg>