<?xml version="1.0" encoding="utf-8"?>
<!-- Generated by Mocodo 4.3.2 -->
<svg width="784" height="415" viewBox="0 0 784 415" xmlns="http://www.w3.org/2000/svg">
<rect x="0" y="0" width="784" height="415" fill="#ffffbf" stroke="none" stroke-width="0"/>

<!-- Association APPARTENIR -->
<g>
	<line x1="178" y1="60" x2="60" y2="60" stroke="#f46d43" stroke-width="2"/>
	<line x1="60" y1="212" x2="60" y2="60" stroke="#f46d43" stroke-width="2"/>
	<g>
		<path d="M92 35 a14 14 90 0 1 14 14 V60 h-92 V49 a14 14 90 0 1 14 -14" fill="#fdae61" stroke="#fdae61" stroke-width="0"/>
		<path d="M106 60 v11 a14 14 90 0 1 -14 14 H28 a14 14 90 0 1 -14 -14 V60 H92" fill="#fee08b" stroke="#fee08b" stroke-width="0"/>
		<rect x="14" y="35" width="92" height="50" fill="none" rx="14" stroke="#f46d43" stroke-width="2"/>
		<line x1="14" y1="60" x2="106" y2="60" stroke="#f46d43" stroke-width="1"/>
		<text x="21" y="52.75" fill="#000000" font-family="Verdana" font-size="12">APPARTENIR</text>
	</g>
	<text x="113" y="77" fill="#1a9850" font-family="Verdana" font-size="12">1,1</text>
	<text x="65" y="128" fill="#1a9850" font-family="Verdana" font-size="12">0,N</text>
</g>

<!-- Association COMPOSER -->
<g>
	<line x1="178" y1="60" x2="323" y2="60" stroke="#f46d43" stroke-width="2"/>
	<line x1="461" y1="60" x2="323" y2="60" stroke="#f46d43" stroke-width="2"/>
	<g>
		<path d="M351 35 a14 14 90 0 1 14 14 V60 h-84 V49 a14 14 90 0 1 14 -14" fill="#fdae61" stroke="#fdae61" stroke-width="0"/>
		<path d="M365 60 v11 a14 14 90 0 1 -14 14 H295 a14 14 90 0 1 -14 -14 V60 H84" fill="#fee08b" stroke="#fee08b" stroke-width="0"/>
		<rect x="281" y="35" width="84" height="50" fill="none" rx="14" stroke="#f46d43" stroke-width="2"/>
		<line x1="281" y1="60" x2="365" y2="60" stroke="#f46d43" stroke-width="1"/>
		<text x="288" y="52.75" fill="#000000" font-family="Verdana" font-size="12">COMPOSER</text>
	</g>
	<text x="222" y="52" fill="#1a9850" font-family="Verdana" font-size="12">0,N</text>
	<text x="371" y="77" fill="#1a9850" font-family="Verdana" font-size="12">1,1</text>
</g>

<!-- Association CONTENIR -->
<g>
	<line x1="461" y1="60" x2="656" y2="60" stroke="#f46d43" stroke-width="2"/>
	<line x1="656" y1="212" x2="656" y2="60" stroke="#f46d43" stroke-width="2"/>
	<g>
		<path d="M682 35 a14 14 90 0 1 14 14 V60 h-80 V49 a14 14 90 0 1 14 -14" fill="#fdae61" stroke="#fdae61" stroke-width="0"/>
		<path d="M696 60 v11 a14 14 90 0 1 -14 14 H630 a14 14 90 0 1 -14 -14 V60 H80" fill="#fee08b" stroke="#fee08b" stroke-width="0"/>
		<rect x="616" y="35" width="80" height="50" fill="none" rx="14" stroke="#f46d43" stroke-width="2"/>
		<line x1="616" y1="60" x2="696" y2="60" stroke="#f46d43" stroke-width="1"/>
		<text x="624" y="52.75" fill="#000000" font-family="Verdana" font-size="12">CONTENIR</text>
	</g>
	<text x="530" y="77" fill="#1a9850" font-family="Verdana" font-size="12">0,N</text>
	<text x="661" y="170" fill="#1a9850" font-family="Verdana" font-size="12">1,1</text>
</g>

<!-- Association EVALUER -->
<g>
	<line x1="178" y1="60" x2="178" y2="212" stroke="#f46d43" stroke-width="2"/>
	<line x1="178" y1="347" x2="178" y2="212" stroke="#f46d43" stroke-width="2"/>
	<g>
		<path d="M199 187 a14 14 90 0 1 14 14 V212 h-70 V201 a14 14 90 0 1 14 -14" fill="#fdae61" stroke="#fdae61" stroke-width="0"/>
		<path d="M213 212 v11 a14 14 90 0 1 -14 14 H157 a14 14 90 0 1 -14 -14 V212 H70" fill="#fee08b" stroke="#fee08b" stroke-width="0"/>
		<rect x="143" y="187" width="70" height="50" fill="none" rx="14" stroke="#f46d43" stroke-width="2"/>
		<line x1="143" y1="212" x2="213" y2="212" stroke="#f46d43" stroke-width="1"/>
		<text x="150" y="204.75" fill="#000000" font-family="Verdana" font-size="12">EVALUER</text>
	</g>
	<text x="151" y="128" fill="#1a9850" font-family="Verdana" font-size="12">0,N</text>
	<text x="183" y="305" fill="#1a9850" font-family="Verdana" font-size="12">1,1</text>
</g>

<!-- Association CREER -->
<g>
	<line x1="461" y1="347" x2="323" y2="212" stroke="#f46d43" stroke-width="2"/>
	<line x1="178" y1="60" x2="323" y2="212" stroke="#f46d43" stroke-width="2"/>
	<g>
		<path d="M337 187 a14 14 90 0 1 14 14 V212 h-56 V201 a14 14 90 0 1 14 -14" fill="#fdae61" stroke="#fdae61" stroke-width="0"/>
		<path d="M351 212 v11 a14 14 90 0 1 -14 14 H309 a14 14 90 0 1 -14 -14 V212 H56" fill="#fee08b" stroke="#fee08b" stroke-width="0"/>
		<rect x="295" y="187" width="56" height="50" fill="none" rx="14" stroke="#f46d43" stroke-width="2"/>
		<line x1="295" y1="212" x2="351" y2="212" stroke="#f46d43" stroke-width="1"/>
		<text x="303" y="204.75" fill="#000000" font-family="Verdana" font-size="12">CREER</text>
	</g>
	<text x="380" y="304.21" fill="#1a9850" font-family="Verdana" font-size="12">0,N</text>
	<text x="222" y="99.72" fill="#1a9850" font-family="Verdana" font-size="12">0,1</text>
</g>

<!-- Association PARTICIPER -->
<g>
	<line x1="461" y1="347" x2="461" y2="212" stroke="#f46d43" stroke-width="2"/>
	<line x1="461" y1="60" x2="461" y2="212" stroke="#f46d43" stroke-width="2"/>
	<g>
		<path d="M491 187 a14 14 90 0 1 14 14 V212 h-88 V201 a14 14 90 0 1 14 -14" fill="#fdae61" stroke="#fdae61" stroke-width="0"/>
		<path d="M505 212 v11 a14 14 90 0 1 -14 14 H431 a14 14 90 0 1 -14 -14 V212 H88" fill="#fee08b" stroke="#fee08b" stroke-width="0"/>
		<rect x="417" y="187" width="88" height="50" fill="none" rx="14" stroke="#f46d43" stroke-width="2"/>
		<line x1="417" y1="212" x2="505" y2="212" stroke="#f46d43" stroke-width="1"/>
		<text x="424" y="204.75" fill="#000000" font-family="Verdana" font-size="12">PARTICIPER</text>
	</g>
	<text x="466" y="280" fill="#1a9850" font-family="Verdana" font-size="12">0,N</text>
	<text x="466" y="128" fill="#1a9850" font-family="Verdana" font-size="12">1,N</text>
</g>

<!-- Association VOTER -->
<g>
	<line x1="461" y1="347" x2="323" y2="347" stroke="#f46d43" stroke-width="2"/>
	<line x1="178" y1="347" x2="323" y2="347" stroke="#f46d43" stroke-width="2"/>
	<g>
		<path d="M337 322 a14 14 90 0 1 14 14 V347 h-56 V336 a14 14 90 0 1 14 -14" fill="#fdae61" stroke="#fdae61" stroke-width="0"/>
		<path d="M351 347 v11 a14 14 90 0 1 -14 14 H309 a14 14 90 0 1 -14 -14 V347 H56" fill="#fee08b" stroke="#fee08b" stroke-width="0"/>
		<rect x="295" y="322" width="56" height="50" fill="none" rx="14" stroke="#f46d43" stroke-width="2"/>
		<line x1="295" y1="347" x2="351" y2="347" stroke="#f46d43" stroke-width="1"/>
		<text x="302" y="339.75" fill="#000000" font-family="Verdana" font-size="12">VOTER</text>
	</g>
	<text x="380" y="364" fill="#1a9850" font-family="Verdana" font-size="12">0,N</text>
	<text x="268" y="364" fill="#1a9850" font-family="Verdana" font-size="12">1,1</text>
</g>

<!-- Association REALISER -->
<g>
	<line x1="461" y1="347" x2="656" y2="347" stroke="#f46d43" stroke-width="2"/>
	<line x1="656" y1="212" x2="656" y2="347" stroke="#f46d43" stroke-width="2"/>
	<g>
		<path d="M680 322 a14 14 90 0 1 14 14 V347 h-76 V336 a14 14 90 0 1 14 -14" fill="#fdae61" stroke="#fdae61" stroke-width="0"/>
		<path d="M694 347 v11 a14 14 90 0 1 -14 14 H632 a14 14 90 0 1 -14 -14 V347 H76" fill="#fee08b" stroke="#fee08b" stroke-width="0"/>
		<rect x="618" y="322" width="76" height="50" fill="none" rx="14" stroke="#f46d43" stroke-width="2"/>
		<line x1="618" y1="347" x2="694" y2="347" stroke="#f46d43" stroke-width="1"/>
		<text x="626" y="339.75" fill="#000000" font-family="Verdana" font-size="12">REALISER</text>
	</g>
	<text x="520" y="364" fill="#1a9850" font-family="Verdana" font-size="12">0,N</text>
	<text x="661" y="263" fill="#1a9850" font-family="Verdana" font-size="12">1,1</text>
</g>

<!-- Entity DEFI -->
<g>
	<g>
		<rect x="139" y="9" width="78" height="25" fill="#a6d96a" stroke="none" stroke-width="0" opacity="1"/>
		<rect x="139" y="34" width="78" height="77" fill="#d9ef8b" stroke="none" stroke-width="0" opacity="1"/>
		<rect x="139" y="9" width="78" height="102" fill="none" stroke="#66bd63" stroke-width="2" opacity="1"/>
		<line x1="139" y1="34" x2="217" y2="34" stroke="#66bd63" stroke-width="1"/>
	</g>
	<text x="163" y="26.75" fill="#000000" font-family="Verdana" font-size="12">DEFI</text>
	<text x="144" y="51.8" fill="#000000" font-family="Verdana" font-size="12">code_defi</text>
	<line x1="144" y1="54" x2="203" y2="54" stroke="#000000" stroke-width="1"/>
	<text x="144" y="68.8" fill="#000000" font-family="Verdana" font-size="12">titre</text>
	<text x="144" y="85.8" fill="#000000" font-family="Verdana" font-size="12">description</text>
	<text x="144" y="102.8" fill="#000000" font-family="Verdana" font-size="12">regles</text>
</g>

<!-- Entity PARTICIPATION -->
<g>
	<g>
		<rect x="397" y="9" width="128" height="25" fill="#a6d96a" stroke="none" stroke-width="0" opacity="1"/>
		<rect x="397" y="34" width="128" height="77" fill="#d9ef8b" stroke="none" stroke-width="0" opacity="1"/>
		<rect x="397" y="9" width="128" height="102" fill="none" stroke="#66bd63" stroke-width="2" opacity="1"/>
		<line x1="397" y1="34" x2="525" y2="34" stroke="#66bd63" stroke-width="1"/>
	</g>
	<text x="413" y="26.75" fill="#000000" font-family="Verdana" font-size="12">PARTICIPATION</text>
	<text x="402" y="51.8" fill="#000000" font-family="Verdana" font-size="12">code_participation</text>
	<line x1="402" y1="54" x2="514" y2="54" stroke="#000000" stroke-width="1"/>
	<text x="402" y="68.8" fill="#000000" font-family="Verdana" font-size="12">lien_video</text>
	<text x="402" y="85.8" fill="#000000" font-family="Verdana" font-size="12">lien_capture_ecran</text>
	<text x="402" y="102.8" fill="#000000" font-family="Verdana" font-size="12">description</text>
</g>

<!-- Entity JEU -->
<g>
	<g>
		<rect x="9" y="136" width="102" height="25" fill="#a6d96a" stroke="none" stroke-width="0" opacity="1"/>
		<rect x="9" y="161" width="102" height="127" fill="#d9ef8b" stroke="none" stroke-width="0" opacity="1"/>
		<rect x="9" y="136" width="102" height="152" fill="none" stroke="#66bd63" stroke-width="2" opacity="1"/>
		<line x1="9" y1="161" x2="111" y2="161" stroke="#66bd63" stroke-width="1"/>
	</g>
	<text x="49" y="153.75" fill="#000000" font-family="Verdana" font-size="12">JEU</text>
	<text x="14" y="178.8" fill="#000000" font-family="Verdana" font-size="12">code_jeu</text>
	<line x1="14" y1="181" x2="70" y2="181" stroke="#000000" stroke-width="1"/>
	<text x="14" y="195.8" fill="#000000" font-family="Verdana" font-size="12">titre</text>
	<text x="14" y="212.8" fill="#000000" font-family="Verdana" font-size="12">categorie</text>
	<text x="14" y="229.8" fill="#000000" font-family="Verdana" font-size="12">description</text>
	<text x="14" y="246.8" fill="#000000" font-family="Verdana" font-size="12">date_de_sortie</text>
	<text x="14" y="263.8" fill="#000000" font-family="Verdana" font-size="12">plateforme</text>
	<text x="14" y="280.8" fill="#000000" font-family="Verdana" font-size="12">image</text>
</g>

<!-- Entity UTILISATEUR_VOTE_PARTICIPATION -->
<g>
	<g>
		<rect x="537" y="178" width="238" height="25" fill="#a6d96a" stroke="none" stroke-width="0" opacity="1"/>
		<rect x="537" y="203" width="238" height="43" fill="#d9ef8b" stroke="none" stroke-width="0" opacity="1"/>
		<rect x="537" y="178" width="238" height="68" fill="none" stroke="#66bd63" stroke-width="2" opacity="1"/>
		<line x1="537" y1="203" x2="775" y2="203" stroke="#66bd63" stroke-width="1"/>
	</g>
	<text x="543" y="195.75" fill="#000000" font-family="Verdana" font-size="12">UTILISATEUR_VOTE_PARTICIPATION</text>
	<text x="542" y="220.8" fill="#000000" font-family="Verdana" font-size="12">code_vote_participation</text>
	<line x1="542" y1="223" x2="688" y2="223" stroke="#000000" stroke-width="1"/>
</g>

<!-- Entity UTILISATEUR_VOTE_DEFI -->
<g>
	<g>
		<rect x="93" y="313" width="170" height="25" fill="#a6d96a" stroke="none" stroke-width="0" opacity="1"/>
		<rect x="93" y="338" width="170" height="43" fill="#d9ef8b" stroke="none" stroke-width="0" opacity="1"/>
		<rect x="93" y="313" width="170" height="68" fill="none" stroke="#66bd63" stroke-width="2" opacity="1"/>
		<line x1="93" y1="338" x2="263" y2="338" stroke="#66bd63" stroke-width="1"/>
	</g>
	<text x="99" y="330.75" fill="#000000" font-family="Verdana" font-size="12">UTILISATEUR_VOTE_DEFI</text>
	<text x="98" y="355.8" fill="#000000" font-family="Verdana" font-size="12">code_vote_defi</text>
	<line x1="98" y1="358" x2="191" y2="358" stroke="#000000" stroke-width="1"/>
</g>

<!-- Entity UTILISATEUR -->
<g>
	<g>
		<rect x="407" y="288" width="108" height="25" fill="#a6d96a" stroke="none" stroke-width="0" opacity="1"/>
		<rect x="407" y="313" width="108" height="93" fill="#d9ef8b" stroke="none" stroke-width="0" opacity="1"/>
		<rect x="407" y="288" width="108" height="118" fill="none" stroke="#66bd63" stroke-width="2" opacity="1"/>
		<line x1="407" y1="313" x2="515" y2="313" stroke="#66bd63" stroke-width="1"/>
	</g>
	<text x="420" y="305.75" fill="#000000" font-family="Verdana" font-size="12">UTILISATEUR</text>
	<text x="412" y="330.8" fill="#000000" font-family="Verdana" font-size="12">code_utilisateur</text>
	<line x1="412" y1="333" x2="509" y2="333" stroke="#000000" stroke-width="1"/>
	<text x="412" y="347.8" fill="#000000" font-family="Verdana" font-size="12">pseudonyme</text>
	<text x="412" y="364.8" fill="#000000" font-family="Verdana" font-size="12">email</text>
	<text x="412" y="381.8" fill="#000000" font-family="Verdana" font-size="12">mot_de_passe</text>
	<text x="412" y="398.8" fill="#000000" font-family="Verdana" font-size="12">avatar</text>
</g>
</svg>