<?xml version="1.0" encoding="utf-8"?>
<!-- Generated by Mocodo 4.3.2 -->
<svg width="715" height="390" viewBox="0 0 715 390" xmlns="http://www.w3.org/2000/svg">
<rect x="0" y="0" width="715" height="390" fill="#ffffbf" stroke="none" stroke-width="0"/>

<!-- Association CREER -->
<g>
	<line x1="388" y1="85" x2="225" y2="85" stroke="#f46d43" stroke-width="2"/>
	<line x1="60" y1="330" x2="225" y2="85" stroke="#f46d43" stroke-width="2"/>
	<g>
		<path d="M239 60 a14 14 90 0 1 14 14 V85 h-56 V74 a14 14 90 0 1 14 -14" fill="#fdae61" stroke="#fdae61" stroke-width="0"/>
		<path d="M253 85 v11 a14 14 90 0 1 -14 14 H211 a14 14 90 0 1 -14 -14 V85 H56" fill="#fee08b" stroke="#fee08b" stroke-width="0"/>
		<rect x="197" y="60" width="56" height="50" fill="none" rx="14" stroke="#f46d43" stroke-width="2"/>
		<line x1="197" y1="85" x2="253" y2="85" stroke="#f46d43" stroke-width="1"/>
		<text x="205" y="77.75" fill="#000000" font-family="Verdana" font-size="12">CREER</text>
	</g>
	<text x="307" y="77" fill="#1a9850" font-family="Verdana" font-size="12">0,N</text>
	<text x="73.5" y="271" fill="#1a9850" font-family="Verdana" font-size="12">0,1</text>
</g>

<!-- Association APPARTENIR -->
<g>
	<line x1="60" y1="330" x2="60" y2="220" stroke="#f46d43" stroke-width="2"/>
	<line x1="60" y1="85" x2="60" y2="220" stroke="#f46d43" stroke-width="2"/>
	<g>
		<path d="M92 195 a14 14 90 0 1 14 14 V220 h-92 V209 a14 14 90 0 1 14 -14" fill="#fdae61" stroke="#fdae61" stroke-width="0"/>
		<path d="M106 220 v11 a14 14 90 0 1 -14 14 H28 a14 14 90 0 1 -14 -14 V220 H92" fill="#fee08b" stroke="#fee08b" stroke-width="0"/>
		<rect x="14" y="195" width="92" height="50" fill="none" rx="14" stroke="#f46d43" stroke-width="2"/>
		<line x1="14" y1="220" x2="106" y2="220" stroke="#f46d43" stroke-width="1"/>
		<text x="21" y="212.75" fill="#000000" font-family="Verdana" font-size="12">APPARTENIR</text>
	</g>
	<text x="34" y="271" fill="#1a9850" font-family="Verdana" font-size="12">1,1</text>
	<text x="65" y="178" fill="#1a9850" font-family="Verdana" font-size="12">0,N</text>
</g>

<!-- Association UTILISATEUR_VOTE_DEFI -->
<g>
	<line x1="388" y1="85" x2="225" y2="220" stroke="#f46d43" stroke-width="2"/>
	<line x1="60" y1="330" x2="225" y2="220" stroke="#f46d43" stroke-width="2"/>
	<g>
		<path d="M298 186 a14 14 90 0 1 14 14 V211 h-174 V200 a14 14 90 0 1 14 -14" fill="#fdae61" stroke="#fdae61" stroke-width="0"/>
		<path d="M312 211 v29 a14 14 90 0 1 -14 14 H152 a14 14 90 0 1 -14 -14 V211 H174" fill="#fee08b" stroke="#fee08b" stroke-width="0"/>
		<rect x="138" y="186" width="174" height="68" fill="none" rx="14" stroke="#f46d43" stroke-width="2"/>
		<line x1="138" y1="211" x2="312" y2="211" stroke="#f46d43" stroke-width="1"/>
		<text x="146" y="203.75" fill="#000000" font-family="Verdana" font-size="12">UTILISATEUR_VOTE_DEFI</text>
		<text x="145" y="228.8" fill="#000000" font-family="Verdana" font-size="12">code_vote_defi</text>
	</g>
	<text x="307" y="127.86" fill="#1a9850" font-family="Verdana" font-size="12">0,N</text>
	<text x="104" y="315.89" fill="#1a9850" font-family="Verdana" font-size="12">0,N</text>
</g>

<!-- Association PARTICIPER -->
<g>
	<line x1="388" y1="85" x2="388" y2="220" stroke="#f46d43" stroke-width="2"/>
	<line x1="388" y1="330" x2="388" y2="220" stroke="#f46d43" stroke-width="2"/>
	<g>
		<path d="M418 195 a14 14 90 0 1 14 14 V220 h-88 V209 a14 14 90 0 1 14 -14" fill="#fdae61" stroke="#fdae61" stroke-width="0"/>
		<path d="M432 220 v11 a14 14 90 0 1 -14 14 H358 a14 14 90 0 1 -14 -14 V220 H88" fill="#fee08b" stroke="#fee08b" stroke-width="0"/>
		<rect x="344" y="195" width="88" height="50" fill="none" rx="14" stroke="#f46d43" stroke-width="2"/>
		<line x1="344" y1="220" x2="432" y2="220" stroke="#f46d43" stroke-width="1"/>
		<text x="351" y="212.75" fill="#000000" font-family="Verdana" font-size="12">PARTICIPER</text>
	</g>
	<text x="393" y="161" fill="#1a9850" font-family="Verdana" font-size="12">0,N</text>
	<text x="361" y="271" fill="#1a9850" font-family="Verdana" font-size="12">1,N</text>
</g>

<!-- Association UTILISATEUR_VOTE_PARTICIPATION -->
<g>
	<line x1="388" y1="330" x2="585" y2="220" stroke="#f46d43" stroke-width="2"/>
	<line x1="388" y1="85" x2="585" y2="220" stroke="#f46d43" stroke-width="2"/>
	<g>
		<path d="M692 186 a14 14 90 0 1 14 14 V211 h-242 V200 a14 14 90 0 1 14 -14" fill="#fdae61" stroke="#fdae61" stroke-width="0"/>
		<path d="M706 211 v29 a14 14 90 0 1 -14 14 H478 a14 14 90 0 1 -14 -14 V211 H242" fill="#fee08b" stroke="#fee08b" stroke-width="0"/>
		<rect x="464" y="186" width="242" height="68" fill="none" rx="14" stroke="#f46d43" stroke-width="2"/>
		<line x1="464" y1="211" x2="706" y2="211" stroke="#f46d43" stroke-width="1"/>
		<text x="472" y="203.75" fill="#000000" font-family="Verdana" font-size="12">UTILISATEUR_VOTE_PARTICIPATION</text>
		<text x="471" y="228.8" fill="#000000" font-family="Verdana" font-size="12">code_vote_participation</text>
	</g>
	<text x="457" y="306.92" fill="#1a9850" font-family="Verdana" font-size="12">0,N</text>
	<text x="447" y="119.24" fill="#1a9850" font-family="Verdana" font-size="12">0,N</text>
</g>

<!-- Association COMPOSER -->
<g>
	<line x1="60" y1="330" x2="225" y2="330" stroke="#f46d43" stroke-width="2"/>
	<line x1="388" y1="330" x2="225" y2="330" stroke="#f46d43" stroke-width="2"/>
	<g>
		<path d="M253 305 a14 14 90 0 1 14 14 V330 h-84 V319 a14 14 90 0 1 14 -14" fill="#fdae61" stroke="#fdae61" stroke-width="0"/>
		<path d="M267 330 v11 a14 14 90 0 1 -14 14 H197 a14 14 90 0 1 -14 -14 V330 H84" fill="#fee08b" stroke="#fee08b" stroke-width="0"/>
		<rect x="183" y="305" width="84" height="50" fill="none" rx="14" stroke="#f46d43" stroke-width="2"/>
		<line x1="183" y1="330" x2="267" y2="330" stroke="#f46d43" stroke-width="1"/>
		<text x="190" y="322.75" fill="#000000" font-family="Verdana" font-size="12">COMPOSER</text>
	</g>
	<text x="104" y="347" fill="#1a9850" font-family="Verdana" font-size="12">0,N</text>
	<text x="298" y="347" fill="#1a9850" font-family="Verdana" font-size="12">1,1</text>
</g>

<!-- Entity JEU -->
<g>
	<g>
		<rect x="9" y="9" width="102" height="25" fill="#a6d96a" stroke="none" stroke-width="0" opacity="1"/>
		<rect x="9" y="34" width="102" height="127" fill="#d9ef8b" stroke="none" stroke-width="0" opacity="1"/>
		<rect x="9" y="9" width="102" height="152" fill="none" stroke="#66bd63" stroke-width="2" opacity="1"/>
		<line x1="9" y1="34" x2="111" y2="34" stroke="#66bd63" stroke-width="1"/>
	</g>
	<text x="49" y="26.75" fill="#000000" font-family="Verdana" font-size="12">JEU</text>
	<text x="14" y="51.8" fill="#000000" font-family="Verdana" font-size="12">code_jeu</text>
	<line x1="14" y1="54" x2="70" y2="54" stroke="#000000" stroke-width="1"/>
	<text x="14" y="68.8" fill="#000000" font-family="Verdana" font-size="12">titre</text>
	<text x="14" y="85.8" fill="#000000" font-family="Verdana" font-size="12">categorie</text>
	<text x="14" y="102.8" fill="#000000" font-family="Verdana" font-size="12">description</text>
	<text x="14" y="119.8" fill="#000000" font-family="Verdana" font-size="12">date_de_sortie</text>
	<text x="14" y="136.8" fill="#000000" font-family="Verdana" font-size="12">plateforme</text>
	<text x="14" y="153.8" fill="#000000" font-family="Verdana" font-size="12">image</text>
</g>

<!-- Entity UTILISATEUR -->
<g>
	<g>
		<rect x="334" y="26" width="108" height="25" fill="#a6d96a" stroke="none" stroke-width="0" opacity="1"/>
		<rect x="334" y="51" width="108" height="93" fill="#d9ef8b" stroke="none" stroke-width="0" opacity="1"/>
		<rect x="334" y="26" width="108" height="118" fill="none" stroke="#66bd63" stroke-width="2" opacity="1"/>
		<line x1="334" y1="51" x2="442" y2="51" stroke="#66bd63" stroke-width="1"/>
	</g>
	<text x="347" y="43.75" fill="#000000" font-family="Verdana" font-size="12">UTILISATEUR</text>
	<text x="339" y="68.8" fill="#000000" font-family="Verdana" font-size="12">code_utilisateur</text>
	<line x1="339" y1="71" x2="436" y2="71" stroke="#000000" stroke-width="1"/>
	<text x="339" y="85.8" fill="#000000" font-family="Verdana" font-size="12">pseudonyme</text>
	<text x="339" y="102.8" fill="#000000" font-family="Verdana" font-size="12">email</text>
	<text x="339" y="119.8" fill="#000000" font-family="Verdana" font-size="12">mot_de_passe</text>
	<text x="339" y="136.8" fill="#000000" font-family="Verdana" font-size="12">avatar</text>
</g>

<!-- Entity DEFI -->
<g>
	<g>
		<rect x="21" y="279" width="78" height="25" fill="#a6d96a" stroke="none" stroke-width="0" opacity="1"/>
		<rect x="21" y="304" width="78" height="77" fill="#d9ef8b" stroke="none" stroke-width="0" opacity="1"/>
		<rect x="21" y="279" width="78" height="102" fill="none" stroke="#66bd63" stroke-width="2" opacity="1"/>
		<line x1="21" y1="304" x2="99" y2="304" stroke="#66bd63" stroke-width="1"/>
	</g>
	<text x="45" y="296.75" fill="#000000" font-family="Verdana" font-size="12">DEFI</text>
	<text x="26" y="321.8" fill="#000000" font-family="Verdana" font-size="12">code_defi</text>
	<line x1="26" y1="324" x2="85" y2="324" stroke="#000000" stroke-width="1"/>
	<text x="26" y="338.8" fill="#000000" font-family="Verdana" font-size="12">titre</text>
	<text x="26" y="355.8" fill="#000000" font-family="Verdana" font-size="12">description</text>
	<text x="26" y="372.8" fill="#000000" font-family="Verdana" font-size="12">regles</text>
</g>

<!-- Entity PARTICIPATION -->
<g>
	<g>
		<rect x="324" y="279" width="128" height="25" fill="#a6d96a" stroke="none" stroke-width="0" opacity="1"/>
		<rect x="324" y="304" width="128" height="77" fill="#d9ef8b" stroke="none" stroke-width="0" opacity="1"/>
		<rect x="324" y="279" width="128" height="102" fill="none" stroke="#66bd63" stroke-width="2" opacity="1"/>
		<line x1="324" y1="304" x2="452" y2="304" stroke="#66bd63" stroke-width="1"/>
	</g>
	<text x="340" y="296.75" fill="#000000" font-family="Verdana" font-size="12">PARTICIPATION</text>
	<text x="329" y="321.8" fill="#000000" font-family="Verdana" font-size="12">code_participation</text>
	<line x1="329" y1="324" x2="441" y2="324" stroke="#000000" stroke-width="1"/>
	<text x="329" y="338.8" fill="#000000" font-family="Verdana" font-size="12">lien_video</text>
	<text x="329" y="355.8" fill="#000000" font-family="Verdana" font-size="12">lien_capture_ecran</text>
	<text x="329" y="372.8" fill="#000000" font-family="Verdana" font-size="12">description</text>
</g>
</svg>